G04 #@! TF.GenerationSoftware,KiCad,Pcbnew,5.1.7*
G04 #@! TF.CreationDate,2020-11-27T22:44:02-08:00*
G04 #@! TF.ProjectId,PC104-8042KBD,50433130-342d-4383-9034-324b42442e6b,rev?*
G04 #@! TF.SameCoordinates,Original*
G04 #@! TF.FileFunction,Copper,L1,Top*
G04 #@! TF.FilePolarity,Positive*
%FSLAX46Y46*%
G04 Gerber Fmt 4.6, Leading zero omitted, Abs format (unit mm)*
G04 Created by KiCad (PCBNEW 5.1.7) date 2020-11-27 22:44:02*
%MOMM*%
%LPD*%
G01*
G04 APERTURE LIST*
G04 #@! TA.AperFunction,ComponentPad*
%ADD10O,1.600000X1.600000*%
G04 #@! TD*
G04 #@! TA.AperFunction,ComponentPad*
%ADD11R,1.600000X1.600000*%
G04 #@! TD*
G04 #@! TA.AperFunction,ComponentPad*
%ADD12C,1.600000*%
G04 #@! TD*
G04 #@! TA.AperFunction,ComponentPad*
%ADD13O,1.700000X1.700000*%
G04 #@! TD*
G04 #@! TA.AperFunction,ComponentPad*
%ADD14R,1.700000X1.700000*%
G04 #@! TD*
G04 #@! TA.AperFunction,ComponentPad*
%ADD15R,1.600000X1.500000*%
G04 #@! TD*
G04 #@! TA.AperFunction,ComponentPad*
%ADD16C,3.000000*%
G04 #@! TD*
G04 #@! TA.AperFunction,ComponentPad*
%ADD17C,6.400000*%
G04 #@! TD*
G04 #@! TA.AperFunction,ComponentPad*
%ADD18C,1.720000*%
G04 #@! TD*
G04 #@! TA.AperFunction,ViaPad*
%ADD19C,0.600000*%
G04 #@! TD*
G04 #@! TA.AperFunction,Conductor*
%ADD20C,0.152400*%
G04 #@! TD*
G04 #@! TA.AperFunction,Conductor*
%ADD21C,0.250000*%
G04 #@! TD*
G04 APERTURE END LIST*
D10*
X163766500Y-80962500D03*
X166306500Y-80962500D03*
X168846500Y-80962500D03*
X171386500Y-80962500D03*
X173926500Y-80962500D03*
D11*
X176466500Y-80962500D03*
D12*
X165671500Y-87653500D03*
X165671500Y-85153500D03*
X134770500Y-113919000D03*
X132270500Y-113919000D03*
X128651000Y-123213500D03*
X128651000Y-120713500D03*
X128651000Y-96543500D03*
X128651000Y-94043500D03*
X154624400Y-77609700D03*
X157124400Y-77609700D03*
D13*
X123571000Y-70294500D03*
D14*
X121031000Y-70294500D03*
D12*
X177546240Y-73273920D03*
X180046240Y-73273920D03*
X182046240Y-73273920D03*
D15*
X184546240Y-73273920D03*
D16*
X174476240Y-70563920D03*
X187616240Y-70563920D03*
D13*
X106680000Y-121983500D03*
X104140000Y-121983500D03*
X106680000Y-119443500D03*
X104140000Y-119443500D03*
X106680000Y-116903500D03*
X104140000Y-116903500D03*
X106680000Y-114363500D03*
X104140000Y-114363500D03*
X106680000Y-111823500D03*
X104140000Y-111823500D03*
X106680000Y-109283500D03*
D14*
X104140000Y-109283500D03*
D10*
X125511560Y-120700800D03*
X117891560Y-143560800D03*
X125511560Y-123240800D03*
X117891560Y-141020800D03*
X125511560Y-125780800D03*
X117891560Y-138480800D03*
X125511560Y-128320800D03*
X117891560Y-135940800D03*
X125511560Y-130860800D03*
X117891560Y-133400800D03*
X125511560Y-133400800D03*
X117891560Y-130860800D03*
X125511560Y-135940800D03*
X117891560Y-128320800D03*
X125511560Y-138480800D03*
X117891560Y-125780800D03*
X125511560Y-141020800D03*
X117891560Y-123240800D03*
X125511560Y-143560800D03*
D11*
X117891560Y-120700800D03*
D10*
X125516640Y-94061280D03*
X117896640Y-116921280D03*
X125516640Y-96601280D03*
X117896640Y-114381280D03*
X125516640Y-99141280D03*
X117896640Y-111841280D03*
X125516640Y-101681280D03*
X117896640Y-109301280D03*
X125516640Y-104221280D03*
X117896640Y-106761280D03*
X125516640Y-106761280D03*
X117896640Y-104221280D03*
X125516640Y-109301280D03*
X117896640Y-101681280D03*
X125516640Y-111841280D03*
X117896640Y-99141280D03*
X125516640Y-114381280D03*
X117896640Y-96601280D03*
X125516640Y-116921280D03*
D11*
X117896640Y-94061280D03*
X155384500Y-85153500D03*
D10*
X163004500Y-100393500D03*
X155384500Y-87693500D03*
X163004500Y-97853500D03*
X155384500Y-90233500D03*
X163004500Y-95313500D03*
X155384500Y-92773500D03*
X163004500Y-92773500D03*
X155384500Y-95313500D03*
X163004500Y-90233500D03*
X155384500Y-97853500D03*
X163004500Y-87693500D03*
X155384500Y-100393500D03*
X163004500Y-85153500D03*
D12*
X183051960Y-77645260D03*
X185551960Y-77645260D03*
X176550440Y-77645260D03*
X179050440Y-77645260D03*
X161147760Y-77609700D03*
X163647760Y-77609700D03*
X155620960Y-73263760D03*
X158120960Y-73263760D03*
X160120960Y-73263760D03*
D15*
X162620960Y-73263760D03*
D16*
X152550960Y-70553760D03*
X165690960Y-70553760D03*
D10*
X132270500Y-110553500D03*
X147510500Y-62293500D03*
X132270500Y-108013500D03*
X147510500Y-64833500D03*
X132270500Y-105473500D03*
X147510500Y-67373500D03*
X132270500Y-102933500D03*
X147510500Y-69913500D03*
X132270500Y-100393500D03*
X147510500Y-72453500D03*
X132270500Y-97853500D03*
X147510500Y-74993500D03*
X132270500Y-95313500D03*
X147510500Y-77533500D03*
X132270500Y-92773500D03*
X147510500Y-80073500D03*
X132270500Y-90233500D03*
X147510500Y-82613500D03*
X132270500Y-87693500D03*
X147510500Y-85153500D03*
X132270500Y-85153500D03*
X147510500Y-87693500D03*
X132270500Y-82613500D03*
X147510500Y-90233500D03*
X132270500Y-80073500D03*
X147510500Y-92773500D03*
X132270500Y-77533500D03*
X147510500Y-95313500D03*
X132270500Y-74993500D03*
X147510500Y-97853500D03*
X132270500Y-72453500D03*
X147510500Y-100393500D03*
X132270500Y-69913500D03*
X147510500Y-102933500D03*
X132270500Y-67373500D03*
X147510500Y-105473500D03*
X132270500Y-64833500D03*
X147510500Y-108013500D03*
X132270500Y-62293500D03*
D11*
X147510500Y-110553500D03*
D17*
X191770000Y-138493500D03*
X191770000Y-64833500D03*
X106045000Y-141033500D03*
X106045000Y-61023500D03*
D18*
X113665000Y-141033500D03*
X113665000Y-138493500D03*
X113665000Y-135953500D03*
X113665000Y-133413500D03*
X113665000Y-130873500D03*
X113665000Y-128333500D03*
X113665000Y-125793500D03*
X113665000Y-123253500D03*
X113665000Y-120713500D03*
X113665000Y-118173500D03*
X113665000Y-115633500D03*
X113665000Y-113093500D03*
X113665000Y-110553500D03*
X113665000Y-108013500D03*
X113665000Y-105473500D03*
X113665000Y-102933500D03*
X113665000Y-100393500D03*
X113665000Y-97853500D03*
X113665000Y-95313500D03*
X113665000Y-92773500D03*
X113665000Y-90233500D03*
X113665000Y-87693500D03*
X113665000Y-85153500D03*
X113665000Y-82613500D03*
X113665000Y-80073500D03*
X113665000Y-77533500D03*
X113665000Y-74993500D03*
X113665000Y-72453500D03*
X113665000Y-69913500D03*
X113665000Y-67373500D03*
X113665000Y-64833500D03*
X113665000Y-62293500D03*
X111125000Y-141033500D03*
X111125000Y-138493500D03*
X111125000Y-135953500D03*
X111125000Y-133413500D03*
X111125000Y-130873500D03*
X111125000Y-128333500D03*
X111125000Y-125793500D03*
X111125000Y-123253500D03*
X111125000Y-120713500D03*
X111125000Y-118173500D03*
X111125000Y-115633500D03*
X111125000Y-113093500D03*
X111125000Y-110553500D03*
X111125000Y-108013500D03*
X111125000Y-105473500D03*
X111125000Y-102933500D03*
X111125000Y-100393500D03*
X111125000Y-97853500D03*
X111125000Y-95313500D03*
X111125000Y-92773500D03*
X111125000Y-90233500D03*
X111125000Y-87693500D03*
X111125000Y-85153500D03*
X111125000Y-82613500D03*
X111125000Y-80073500D03*
X111125000Y-77533500D03*
X111125000Y-74993500D03*
X111125000Y-72453500D03*
X111125000Y-69913500D03*
X111125000Y-67373500D03*
X111125000Y-64833500D03*
X111125000Y-62293500D03*
D19*
X153517600Y-102920800D03*
X134434200Y-96583500D03*
X159321500Y-96583500D03*
X135010400Y-92773500D03*
X133858000Y-95313500D03*
X135890000Y-100380800D03*
X129857500Y-67373500D03*
X129857500Y-62293500D03*
X143764000Y-134683500D03*
X143764000Y-118872000D03*
X144711800Y-97853500D03*
X121716800Y-96621600D03*
X121716800Y-120700800D03*
D20*
X146240500Y-94043500D02*
X147510500Y-92773500D01*
X131947722Y-94043500D02*
X146240500Y-94043500D01*
X130677722Y-95313500D02*
X131947722Y-94043500D01*
X113665000Y-95313500D02*
X130677722Y-95313500D01*
X143700500Y-91503500D02*
X147510500Y-87693500D01*
X131762500Y-91503500D02*
X143700500Y-91503500D01*
X130492500Y-92773500D02*
X131762500Y-91503500D01*
X113665000Y-92773500D02*
X130492500Y-92773500D01*
X160296270Y-96624730D02*
X160296270Y-86020230D01*
X159067500Y-97853500D02*
X160296270Y-96624730D01*
X155384500Y-97853500D02*
X159067500Y-97853500D01*
X160296270Y-86020230D02*
X163068000Y-83248500D01*
X166560500Y-83248500D02*
X168846500Y-80962500D01*
X163068000Y-83248500D02*
X166560500Y-83248500D01*
X146240500Y-81343500D02*
X147510500Y-82613500D01*
X112395000Y-81343500D02*
X146240500Y-81343500D01*
X111125000Y-82613500D02*
X112395000Y-81343500D01*
X146240500Y-78803500D02*
X147510500Y-80073500D01*
X112395000Y-78803500D02*
X146240500Y-78803500D01*
X111125000Y-80073500D02*
X112395000Y-78803500D01*
X146240500Y-76263500D02*
X147510500Y-77533500D01*
X111125000Y-77533500D02*
X112395000Y-76263500D01*
X112395000Y-76263500D02*
X146240500Y-76263500D01*
X146240500Y-73723500D02*
X147510500Y-74993500D01*
X112395000Y-73723500D02*
X146240500Y-73723500D01*
X111125000Y-74993500D02*
X112395000Y-73723500D01*
X146240500Y-71183500D02*
X147510500Y-72453500D01*
X111125000Y-72453500D02*
X112395000Y-71183500D01*
X119253000Y-71183500D02*
X120142000Y-72072500D01*
X112395000Y-71183500D02*
X119253000Y-71183500D01*
X125349000Y-71183500D02*
X124460000Y-72072500D01*
X125349000Y-71183500D02*
X146240500Y-71183500D01*
X124460000Y-72072500D02*
X120142000Y-72072500D01*
X146240500Y-68643500D02*
X147510500Y-69913500D01*
X112395000Y-68643500D02*
X146240500Y-68643500D01*
X111125000Y-69913500D02*
X112395000Y-68643500D01*
X146240500Y-66103500D02*
X147510500Y-67373500D01*
X112395000Y-66103500D02*
X146240500Y-66103500D01*
X111125000Y-67373500D02*
X112395000Y-66103500D01*
X133413500Y-63563500D02*
X146240500Y-63563500D01*
X131194299Y-63369701D02*
X133219701Y-63369701D01*
X133219701Y-63369701D02*
X133413500Y-63563500D01*
X131000500Y-63563500D02*
X131194299Y-63369701D01*
X146240500Y-63563500D02*
X147510500Y-64833500D01*
X112395000Y-63563500D02*
X131000500Y-63563500D01*
X111125000Y-64833500D02*
X112395000Y-63563500D01*
X161353500Y-102425500D02*
X161353500Y-94424500D01*
X159588200Y-104190800D02*
X161353500Y-102425500D01*
X161353500Y-94424500D02*
X163004500Y-92773500D01*
X147015200Y-104190800D02*
X159588200Y-104190800D01*
X146815299Y-104390701D02*
X147015200Y-104190800D01*
X146815299Y-104397299D02*
X146815299Y-104390701D01*
X146812000Y-104394000D02*
X146815299Y-104397299D01*
X145732500Y-105473500D02*
X146812000Y-104394000D01*
X132270500Y-105473500D02*
X145732500Y-105473500D01*
X132270500Y-102933500D02*
X145732500Y-102933500D01*
X160648680Y-90049320D02*
X163004500Y-87693500D01*
X159054800Y-101650800D02*
X160648680Y-100056920D01*
X147015200Y-101650800D02*
X159054800Y-101650800D01*
X145732500Y-102933500D02*
X147015200Y-101650800D01*
X160648680Y-100056920D02*
X160648680Y-90049320D01*
X147187722Y-71183500D02*
X145923000Y-69918778D01*
X148018500Y-71183500D02*
X147187722Y-71183500D01*
X149542500Y-72707500D02*
X148018500Y-71183500D01*
X132275778Y-69918778D02*
X132270500Y-69913500D01*
X149542500Y-77712720D02*
X149542500Y-72707500D01*
X145923000Y-69918778D02*
X132275778Y-69918778D01*
X155384500Y-83554720D02*
X149542500Y-77712720D01*
X155384500Y-85153500D02*
X155384500Y-83554720D01*
X155384500Y-90233500D02*
X156654500Y-88963500D01*
X149894910Y-77566748D02*
X149894910Y-70583410D01*
X156654500Y-84326338D02*
X149894910Y-77566748D01*
X156654500Y-88963500D02*
X156654500Y-84326338D01*
X149894910Y-70583410D02*
X147955000Y-68643500D01*
X147187722Y-68643500D02*
X145923000Y-67378778D01*
X147955000Y-68643500D02*
X147187722Y-68643500D01*
X132275778Y-67378778D02*
X132270500Y-67373500D01*
X145923000Y-67378778D02*
X132275778Y-67378778D01*
X179050440Y-74269720D02*
X180046240Y-73273920D01*
X179050440Y-77645260D02*
X179050440Y-74269720D01*
X163004500Y-90233500D02*
X166462200Y-90233500D01*
X163004500Y-90233500D02*
X161001090Y-92236910D01*
X161001090Y-92236910D02*
X161001090Y-97282000D01*
X161001090Y-97282000D02*
X161001090Y-101076110D01*
X159156400Y-102920800D02*
X153517600Y-102920800D01*
X161001090Y-101076110D02*
X159156400Y-102920800D01*
X171386500Y-85309200D02*
X171386500Y-80962500D01*
X166462200Y-90233500D02*
X171386500Y-85309200D01*
X177465100Y-79230600D02*
X179050440Y-77645260D01*
X173118400Y-79230600D02*
X177465100Y-79230600D01*
X171386500Y-80962500D02*
X173118400Y-79230600D01*
X183051960Y-74279640D02*
X182046240Y-73273920D01*
X183051960Y-77645260D02*
X183051960Y-74279640D01*
X163004500Y-95313500D02*
X165383720Y-95313500D01*
X134434200Y-96583500D02*
X159321500Y-96583500D01*
X173926500Y-86770720D02*
X173926500Y-80962500D01*
X165383720Y-95313500D02*
X173926500Y-86770720D01*
X181021610Y-79675610D02*
X183051960Y-77645260D01*
X180941220Y-79756000D02*
X181021610Y-79675610D01*
X175133000Y-79756000D02*
X180941220Y-79756000D01*
X173926500Y-80962500D02*
X175133000Y-79756000D01*
X157124400Y-74260320D02*
X158120960Y-73263760D01*
X157124400Y-77609700D02*
X157124400Y-74260320D01*
X145917722Y-92773500D02*
X147187722Y-91503500D01*
X135010400Y-92773500D02*
X145917722Y-92773500D01*
X151574500Y-91503500D02*
X155384500Y-87693500D01*
X147187722Y-91503500D02*
X151574500Y-91503500D01*
X160477200Y-80962500D02*
X157124400Y-77609700D01*
X163766500Y-80962500D02*
X160477200Y-80962500D01*
X161147760Y-74290560D02*
X160120960Y-73263760D01*
X161147760Y-77609700D02*
X161147760Y-74290560D01*
X145917722Y-95313500D02*
X147187722Y-94043500D01*
X133858000Y-95313500D02*
X145917722Y-95313500D01*
X154114500Y-94043500D02*
X155384500Y-92773500D01*
X147187722Y-94043500D02*
X154114500Y-94043500D01*
X161147760Y-77609700D02*
X163103560Y-79565500D01*
X164909500Y-79565500D02*
X166306500Y-80962500D01*
X163103560Y-79565500D02*
X164909500Y-79565500D01*
D21*
X135902700Y-100393500D02*
X135890000Y-100380800D01*
X147510500Y-100393500D02*
X135902700Y-100393500D01*
X162620960Y-73263760D02*
X162620960Y-69535040D01*
X162620960Y-69535040D02*
X165354000Y-66802000D01*
X165354000Y-66802000D02*
X181800500Y-66802000D01*
X184546240Y-69547740D02*
X184546240Y-73273920D01*
X181800500Y-66802000D02*
X184546240Y-69547740D01*
D20*
X184546240Y-73273920D02*
X184277000Y-73543160D01*
D21*
X184546240Y-73273920D02*
X184340500Y-73479660D01*
X184340500Y-73479660D02*
X184340500Y-78486000D01*
X181864000Y-80962500D02*
X176466500Y-80962500D01*
X184340500Y-78486000D02*
X181864000Y-80962500D01*
D20*
X113665000Y-67373500D02*
X113157000Y-67373500D01*
D21*
X113665000Y-67373500D02*
X129857500Y-67373500D01*
X154254419Y-61168499D02*
X162620960Y-69535040D01*
X130982501Y-61168499D02*
X154254419Y-61168499D01*
X129857500Y-62293500D02*
X130982501Y-61168499D01*
D20*
X146240500Y-106743500D02*
X147510500Y-105473500D01*
X131508500Y-106743500D02*
X146240500Y-106743500D01*
X130238500Y-108013500D02*
X131508500Y-106743500D01*
X124333000Y-108013500D02*
X130238500Y-108013500D01*
X121793000Y-110553500D02*
X124333000Y-108013500D01*
X113665000Y-110553500D02*
X121793000Y-110553500D01*
X112395000Y-134683500D02*
X111125000Y-133413500D01*
X143764000Y-134683500D02*
X112395000Y-134683500D01*
X112261201Y-132011201D02*
X112390000Y-132140000D01*
X112261201Y-132009701D02*
X112261201Y-132011201D01*
X111125000Y-130873500D02*
X112261201Y-132009701D01*
X112390000Y-132140000D02*
X116630760Y-132140000D01*
X116630760Y-132140000D02*
X117891560Y-133400800D01*
X111125000Y-128333500D02*
X112391500Y-129600000D01*
X112391500Y-129600000D02*
X121710760Y-129600000D01*
X121710760Y-129600000D02*
X125511560Y-133400800D01*
X111125000Y-125793500D02*
X112401500Y-127070000D01*
X112401500Y-127070000D02*
X116640760Y-127070000D01*
X116640760Y-127070000D02*
X117891560Y-128320800D01*
X111125000Y-123253500D02*
X112401500Y-124530000D01*
X112401500Y-124530000D02*
X121720760Y-124530000D01*
X121720760Y-124530000D02*
X125511560Y-128320800D01*
X111125000Y-120713500D02*
X112391500Y-121980000D01*
X112391500Y-121980000D02*
X116630760Y-121980000D01*
X116630760Y-121980000D02*
X117891560Y-123240800D01*
X111125000Y-118173500D02*
X112388500Y-116910000D01*
X112388500Y-116910000D02*
X116315142Y-116910000D01*
X117575142Y-115650000D02*
X124247920Y-115650000D01*
X124247920Y-115650000D02*
X125516640Y-114381280D01*
X116315142Y-116910000D02*
X117575142Y-115650000D01*
X111125000Y-115633500D02*
X112388500Y-114370000D01*
X112388500Y-114370000D02*
X117885360Y-114370000D01*
X117885360Y-114370000D02*
X117896640Y-114381280D01*
X111125000Y-113093500D02*
X112395000Y-111823500D01*
X112395000Y-111823500D02*
X116078000Y-111823500D01*
X116078000Y-111823500D02*
X117348000Y-113093500D01*
X121724420Y-113093500D02*
X125516640Y-109301280D01*
X117348000Y-113093500D02*
X121724420Y-113093500D01*
X111125000Y-110553500D02*
X112378500Y-109300000D01*
X112378500Y-109300000D02*
X117895360Y-109300000D01*
X117895360Y-109300000D02*
X117896640Y-109301280D01*
X112358500Y-106780000D02*
X116285142Y-106780000D01*
X111125000Y-108013500D02*
X112358500Y-106780000D01*
X116285142Y-106780000D02*
X117575142Y-105490000D01*
X117575142Y-105490000D02*
X124247920Y-105490000D01*
X124247920Y-105490000D02*
X125516640Y-104221280D01*
X111125000Y-105473500D02*
X112398500Y-104200000D01*
X112398500Y-104200000D02*
X117875360Y-104200000D01*
X117875360Y-104200000D02*
X117896640Y-104221280D01*
X111125000Y-102933500D02*
X112378500Y-101680000D01*
X112378500Y-101680000D02*
X116305142Y-101680000D01*
X117575142Y-100410000D02*
X124247920Y-100410000D01*
X124247920Y-100410000D02*
X125516640Y-99141280D01*
X116305142Y-101680000D02*
X117575142Y-100410000D01*
X111125000Y-100393500D02*
X112398500Y-99120000D01*
X112398500Y-99120000D02*
X117875360Y-99120000D01*
X117875360Y-99120000D02*
X117896640Y-99141280D01*
X125511560Y-123240800D02*
X124206000Y-121935240D01*
X125222000Y-118872000D02*
X143764000Y-118872000D01*
X124206000Y-119888000D02*
X125222000Y-118872000D01*
X124206000Y-121935240D02*
X124206000Y-119888000D01*
X147510500Y-97853500D02*
X144711800Y-97853500D01*
X121737120Y-96601280D02*
X121716800Y-96621600D01*
X125516640Y-96601280D02*
X121737120Y-96601280D01*
X121716800Y-120700800D02*
X117891560Y-120700800D01*
X116014500Y-96583500D02*
X117284500Y-97853500D01*
X129730500Y-97853500D02*
X132270500Y-100393500D01*
X117284500Y-97853500D02*
X129730500Y-97853500D01*
X105918000Y-96583500D02*
X104140000Y-98361500D01*
X105918000Y-96583500D02*
X116014500Y-96583500D01*
X104140000Y-98361500D02*
X104140000Y-98361500D01*
X104140000Y-98361500D02*
X104140000Y-98361500D01*
X104140000Y-98361500D02*
X104140000Y-109283500D01*
X113665000Y-64833500D02*
X130441700Y-64833500D01*
X131517901Y-63757299D02*
X133048499Y-63757299D01*
X130441700Y-64833500D02*
X131517901Y-63757299D01*
X133048499Y-63757299D02*
X134112000Y-64820800D01*
X134112000Y-64820800D02*
X145948400Y-64820800D01*
X145948400Y-64820800D02*
X147218400Y-66090800D01*
X147218400Y-66090800D02*
X148031200Y-66090800D01*
X150266400Y-68326000D02*
X150266400Y-77439856D01*
X148031200Y-66090800D02*
X150266400Y-68326000D01*
X157006910Y-93691090D02*
X155384500Y-95313500D01*
X157006910Y-84180365D02*
X157006910Y-93691090D01*
X150266400Y-77439856D02*
X157006910Y-84180365D01*
M02*
