M48
INCH,TZ
T1C0.0118
T2C0.0315
T3C0.0374
T4C0.0394
T5C0.0402
T6C0.0906
T7C0.1260
%
G90
G05
T1
X47920Y-38040
X47920Y-47520
X51125Y-24525
X51125Y-26525
X52700Y-37525
X52927Y-38025
X53154Y-36525
X53500Y-39520
X56600Y-46800
X56600Y-53025
X56973Y-38525
X60440Y-40520
X62725Y-38025
T2
X61175Y-33525
X61175Y-34525
X61175Y-35525
X61175Y-36525
X61175Y-37525
X61175Y-38525
X61175Y-39525
X64175Y-33525
X64175Y-34525
X64175Y-35525
X64175Y-36525
X64175Y-37525
X64175Y-38525
X64175Y-39525
X52075Y-44850
X53059Y-44850
X50650Y-37025
X50650Y-38009
X69508Y-30569
X70492Y-30569
X64475Y-31875
X65475Y-31875
X66475Y-31875
X67475Y-31875
X68475Y-31875
X69475Y-31875
X65225Y-33525
X65225Y-34509
X46414Y-47520
X46414Y-48520
X46414Y-49520
X46414Y-50520
X46414Y-51520
X46414Y-52520
X46414Y-53520
X46414Y-54520
X46414Y-55520
X46414Y-56520
X49414Y-47520
X49414Y-48520
X49414Y-49520
X49414Y-50520
X49414Y-51520
X49414Y-52520
X49414Y-53520
X49414Y-54520
X49414Y-55520
X49414Y-56520
X63444Y-30555
X64428Y-30555
X60876Y-30555
X61860Y-30555
X50650Y-47525
X50650Y-48509
X46416Y-37032
X46416Y-38032
X46416Y-39032
X46416Y-40032
X46416Y-41032
X46416Y-42032
X46416Y-43032
X46416Y-44032
X46416Y-45032
X46416Y-46032
X49416Y-37032
X49416Y-38032
X49416Y-39032
X49416Y-40032
X49416Y-41032
X49416Y-42032
X49416Y-43032
X49416Y-44032
X49416Y-45032
X49416Y-46032
X52075Y-24525
X52075Y-25525
X52075Y-26525
X52075Y-27525
X52075Y-28525
X52075Y-29525
X52075Y-30525
X52075Y-31525
X52075Y-32525
X52075Y-33525
X52075Y-34525
X52075Y-35525
X52075Y-36525
X52075Y-37525
X52075Y-38525
X52075Y-39525
X52075Y-40525
X52075Y-41525
X52075Y-42525
X52075Y-43525
X58075Y-24525
X58075Y-25525
X58075Y-26525
X58075Y-27525
X58075Y-28525
X58075Y-29525
X58075Y-30525
X58075Y-31525
X58075Y-32525
X58075Y-33525
X58075Y-34525
X58075Y-35525
X58075Y-36525
X58075Y-37525
X58075Y-38525
X58075Y-39525
X58075Y-40525
X58075Y-41525
X58075Y-42525
X58075Y-43525
X72068Y-30569
X73052Y-30569
T3
X69900Y-28848
X70884Y-28848
X71672Y-28848
X72656Y-28848
X61268Y-28844
X62252Y-28844
X63040Y-28844
X64024Y-28844
T4
X47650Y-27675
X48650Y-27675
X41000Y-43025
X41000Y-44025
X41000Y-45025
X41000Y-46025
X41000Y-47025
X41000Y-48025
X42000Y-43025
X42000Y-44025
X42000Y-45025
X42000Y-46025
X42000Y-47025
X42000Y-48025
T5
X43750Y-24525
X43750Y-25525
X43750Y-26525
X43750Y-27525
X43750Y-28525
X43750Y-29525
X43750Y-30525
X43750Y-31525
X43750Y-32525
X43750Y-33525
X43750Y-34525
X43750Y-35525
X43750Y-36525
X43750Y-37525
X43750Y-38525
X43750Y-39525
X43750Y-40525
X43750Y-41525
X43750Y-42525
X43750Y-43525
X43750Y-44525
X43750Y-45525
X43750Y-46525
X43750Y-47525
X43750Y-48525
X43750Y-49525
X43750Y-50525
X43750Y-51525
X43750Y-52525
X43750Y-53525
X43750Y-54525
X43750Y-55525
X44750Y-24525
X44750Y-25525
X44750Y-26525
X44750Y-27525
X44750Y-28525
X44750Y-29525
X44750Y-30525
X44750Y-31525
X44750Y-32525
X44750Y-33525
X44750Y-34525
X44750Y-35525
X44750Y-36525
X44750Y-37525
X44750Y-38525
X44750Y-39525
X44750Y-40525
X44750Y-41525
X44750Y-42525
X44750Y-43525
X44750Y-44525
X44750Y-45525
X44750Y-46525
X44750Y-47525
X44750Y-48525
X44750Y-49525
X44750Y-50525
X44750Y-51525
X44750Y-52525
X44750Y-53525
X44750Y-54525
X44750Y-55525
T6
X68691Y-27781
X73865Y-27781
X60059Y-27777
X65233Y-27777
T7
X41750Y-24025
X75500Y-54525
X75500Y-25525
X41750Y-55525
T0
M30
