G04 #@! TF.GenerationSoftware,KiCad,Pcbnew,5.1.7*
G04 #@! TF.CreationDate,2020-11-27T22:44:02-08:00*
G04 #@! TF.ProjectId,PC104-8042KBD,50433130-342d-4383-9034-324b42442e6b,rev?*
G04 #@! TF.SameCoordinates,Original*
G04 #@! TF.FileFunction,Legend,Top*
G04 #@! TF.FilePolarity,Positive*
%FSLAX46Y46*%
G04 Gerber Fmt 4.6, Leading zero omitted, Abs format (unit mm)*
G04 Created by KiCad (PCBNEW 5.1.7) date 2020-11-27 22:44:02*
%MOMM*%
%LPD*%
G01*
G04 APERTURE LIST*
%ADD10C,0.150000*%
%ADD11C,0.120000*%
G04 APERTURE END LIST*
D10*
X191057780Y-95608895D02*
X191057780Y-95418419D01*
X191105400Y-95323180D01*
X191200638Y-95227942D01*
X191391114Y-95180323D01*
X191724447Y-95180323D01*
X191914923Y-95227942D01*
X192010161Y-95323180D01*
X192057780Y-95418419D01*
X192057780Y-95608895D01*
X192010161Y-95704133D01*
X191914923Y-95799371D01*
X191724447Y-95846990D01*
X191391114Y-95846990D01*
X191200638Y-95799371D01*
X191105400Y-95704133D01*
X191057780Y-95608895D01*
X191391114Y-94751752D02*
X192057780Y-94751752D01*
X191486352Y-94751752D02*
X191438733Y-94704133D01*
X191391114Y-94608895D01*
X191391114Y-94466038D01*
X191438733Y-94370800D01*
X191533971Y-94323180D01*
X192057780Y-94323180D01*
X192057780Y-93704133D02*
X192010161Y-93799371D01*
X191914923Y-93846990D01*
X191057780Y-93846990D01*
X191391114Y-93418419D02*
X192057780Y-93180323D01*
X191391114Y-92942228D02*
X192057780Y-93180323D01*
X192295876Y-93275561D01*
X192343495Y-93323180D01*
X192391114Y-93418419D01*
X191391114Y-91942228D02*
X191391114Y-91561276D01*
X192057780Y-91799371D02*
X191200638Y-91799371D01*
X191105400Y-91751752D01*
X191057780Y-91656514D01*
X191057780Y-91561276D01*
X192057780Y-91085085D02*
X192010161Y-91180323D01*
X191962542Y-91227942D01*
X191867304Y-91275561D01*
X191581590Y-91275561D01*
X191486352Y-91227942D01*
X191438733Y-91180323D01*
X191391114Y-91085085D01*
X191391114Y-90942228D01*
X191438733Y-90846990D01*
X191486352Y-90799371D01*
X191581590Y-90751752D01*
X191867304Y-90751752D01*
X191962542Y-90799371D01*
X192010161Y-90846990D01*
X192057780Y-90942228D01*
X192057780Y-91085085D01*
X192057780Y-90323180D02*
X191391114Y-90323180D01*
X191581590Y-90323180D02*
X191486352Y-90275561D01*
X191438733Y-90227942D01*
X191391114Y-90132704D01*
X191391114Y-90037466D01*
X191391114Y-88513657D02*
X192057780Y-88513657D01*
X191391114Y-88942228D02*
X191914923Y-88942228D01*
X192010161Y-88894609D01*
X192057780Y-88799371D01*
X192057780Y-88656514D01*
X192010161Y-88561276D01*
X191962542Y-88513657D01*
X192010161Y-88085085D02*
X192057780Y-87989847D01*
X192057780Y-87799371D01*
X192010161Y-87704133D01*
X191914923Y-87656514D01*
X191867304Y-87656514D01*
X191772066Y-87704133D01*
X191724447Y-87799371D01*
X191724447Y-87942228D01*
X191676828Y-88037466D01*
X191581590Y-88085085D01*
X191533971Y-88085085D01*
X191438733Y-88037466D01*
X191391114Y-87942228D01*
X191391114Y-87799371D01*
X191438733Y-87704133D01*
X192010161Y-86846990D02*
X192057780Y-86942228D01*
X192057780Y-87132704D01*
X192010161Y-87227942D01*
X191914923Y-87275561D01*
X191533971Y-87275561D01*
X191438733Y-87227942D01*
X191391114Y-87132704D01*
X191391114Y-86942228D01*
X191438733Y-86846990D01*
X191533971Y-86799371D01*
X191629209Y-86799371D01*
X191724447Y-87275561D01*
X191391114Y-85704133D02*
X192057780Y-85513657D01*
X191581590Y-85323180D01*
X192057780Y-85132704D01*
X191391114Y-84942228D01*
X192057780Y-84561276D02*
X191391114Y-84561276D01*
X191057780Y-84561276D02*
X191105400Y-84608895D01*
X191153019Y-84561276D01*
X191105400Y-84513657D01*
X191057780Y-84561276D01*
X191153019Y-84561276D01*
X191391114Y-84227942D02*
X191391114Y-83846990D01*
X191057780Y-84085085D02*
X191914923Y-84085085D01*
X192010161Y-84037466D01*
X192057780Y-83942228D01*
X192057780Y-83846990D01*
X192057780Y-83513657D02*
X191057780Y-83513657D01*
X192057780Y-83085085D02*
X191533971Y-83085085D01*
X191438733Y-83132704D01*
X191391114Y-83227942D01*
X191391114Y-83370800D01*
X191438733Y-83466038D01*
X191486352Y-83513657D01*
X192057780Y-81846990D02*
X191057780Y-81846990D01*
X191057780Y-81466038D01*
X191105400Y-81370800D01*
X191153019Y-81323180D01*
X191248257Y-81275561D01*
X191391114Y-81275561D01*
X191486352Y-81323180D01*
X191533971Y-81370800D01*
X191581590Y-81466038D01*
X191581590Y-81846990D01*
X192010161Y-80894609D02*
X192057780Y-80751752D01*
X192057780Y-80513657D01*
X192010161Y-80418419D01*
X191962542Y-80370800D01*
X191867304Y-80323180D01*
X191772066Y-80323180D01*
X191676828Y-80370800D01*
X191629209Y-80418419D01*
X191581590Y-80513657D01*
X191533971Y-80704133D01*
X191486352Y-80799371D01*
X191438733Y-80846990D01*
X191343495Y-80894609D01*
X191248257Y-80894609D01*
X191153019Y-80846990D01*
X191105400Y-80799371D01*
X191057780Y-80704133D01*
X191057780Y-80466038D01*
X191105400Y-80323180D01*
X191010161Y-79180323D02*
X192295876Y-80037466D01*
X191153019Y-78894609D02*
X191105400Y-78846990D01*
X191057780Y-78751752D01*
X191057780Y-78513657D01*
X191105400Y-78418419D01*
X191153019Y-78370800D01*
X191248257Y-78323180D01*
X191343495Y-78323180D01*
X191486352Y-78370800D01*
X192057780Y-78942228D01*
X192057780Y-78323180D01*
X192057780Y-76704133D02*
X191533971Y-76704133D01*
X191438733Y-76751752D01*
X191391114Y-76846990D01*
X191391114Y-77037466D01*
X191438733Y-77132704D01*
X192010161Y-76704133D02*
X192057780Y-76799371D01*
X192057780Y-77037466D01*
X192010161Y-77132704D01*
X191914923Y-77180323D01*
X191819685Y-77180323D01*
X191724447Y-77132704D01*
X191676828Y-77037466D01*
X191676828Y-76799371D01*
X191629209Y-76704133D01*
X192057780Y-75799371D02*
X191057780Y-75799371D01*
X192010161Y-75799371D02*
X192057780Y-75894609D01*
X192057780Y-76085085D01*
X192010161Y-76180323D01*
X191962542Y-76227942D01*
X191867304Y-76275561D01*
X191581590Y-76275561D01*
X191486352Y-76227942D01*
X191438733Y-76180323D01*
X191391114Y-76085085D01*
X191391114Y-75894609D01*
X191438733Y-75799371D01*
X192057780Y-74894609D02*
X191533971Y-74894609D01*
X191438733Y-74942228D01*
X191391114Y-75037466D01*
X191391114Y-75227942D01*
X191438733Y-75323180D01*
X192010161Y-74894609D02*
X192057780Y-74989847D01*
X192057780Y-75227942D01*
X192010161Y-75323180D01*
X191914923Y-75370800D01*
X191819685Y-75370800D01*
X191724447Y-75323180D01*
X191676828Y-75227942D01*
X191676828Y-74989847D01*
X191629209Y-74894609D01*
X191391114Y-74418419D02*
X192391114Y-74418419D01*
X191438733Y-74418419D02*
X191391114Y-74323180D01*
X191391114Y-74132704D01*
X191438733Y-74037466D01*
X191486352Y-73989847D01*
X191581590Y-73942228D01*
X191867304Y-73942228D01*
X191962542Y-73989847D01*
X192010161Y-74037466D01*
X192057780Y-74132704D01*
X192057780Y-74323180D01*
X192010161Y-74418419D01*
X191391114Y-73656514D02*
X191391114Y-73275561D01*
X191057780Y-73513657D02*
X191914923Y-73513657D01*
X192010161Y-73466038D01*
X192057780Y-73370800D01*
X192057780Y-73275561D01*
X192010161Y-72561276D02*
X192057780Y-72656514D01*
X192057780Y-72846990D01*
X192010161Y-72942228D01*
X191914923Y-72989847D01*
X191533971Y-72989847D01*
X191438733Y-72942228D01*
X191391114Y-72846990D01*
X191391114Y-72656514D01*
X191438733Y-72561276D01*
X191533971Y-72513657D01*
X191629209Y-72513657D01*
X191724447Y-72989847D01*
X192057780Y-72085085D02*
X191391114Y-72085085D01*
X191581590Y-72085085D02*
X191486352Y-72037466D01*
X191438733Y-71989847D01*
X191391114Y-71894609D01*
X191391114Y-71799371D01*
X193660161Y-96799371D02*
X193707780Y-96894609D01*
X193707780Y-97085085D01*
X193660161Y-97180323D01*
X193612542Y-97227942D01*
X193517304Y-97275561D01*
X193231590Y-97275561D01*
X193136352Y-97227942D01*
X193088733Y-97180323D01*
X193041114Y-97085085D01*
X193041114Y-96894609D01*
X193088733Y-96799371D01*
X193707780Y-96227942D02*
X193660161Y-96323180D01*
X193612542Y-96370800D01*
X193517304Y-96418419D01*
X193231590Y-96418419D01*
X193136352Y-96370800D01*
X193088733Y-96323180D01*
X193041114Y-96227942D01*
X193041114Y-96085085D01*
X193088733Y-95989847D01*
X193136352Y-95942228D01*
X193231590Y-95894609D01*
X193517304Y-95894609D01*
X193612542Y-95942228D01*
X193660161Y-95989847D01*
X193707780Y-96085085D01*
X193707780Y-96227942D01*
X193707780Y-95466038D02*
X193041114Y-95466038D01*
X193136352Y-95466038D02*
X193088733Y-95418419D01*
X193041114Y-95323180D01*
X193041114Y-95180323D01*
X193088733Y-95085085D01*
X193183971Y-95037466D01*
X193707780Y-95037466D01*
X193183971Y-95037466D02*
X193088733Y-94989847D01*
X193041114Y-94894609D01*
X193041114Y-94751752D01*
X193088733Y-94656514D01*
X193183971Y-94608895D01*
X193707780Y-94608895D01*
X193041114Y-94132704D02*
X194041114Y-94132704D01*
X193088733Y-94132704D02*
X193041114Y-94037466D01*
X193041114Y-93846990D01*
X193088733Y-93751752D01*
X193136352Y-93704133D01*
X193231590Y-93656514D01*
X193517304Y-93656514D01*
X193612542Y-93704133D01*
X193660161Y-93751752D01*
X193707780Y-93846990D01*
X193707780Y-94037466D01*
X193660161Y-94132704D01*
X193707780Y-92799371D02*
X193183971Y-92799371D01*
X193088733Y-92846990D01*
X193041114Y-92942228D01*
X193041114Y-93132704D01*
X193088733Y-93227942D01*
X193660161Y-92799371D02*
X193707780Y-92894609D01*
X193707780Y-93132704D01*
X193660161Y-93227942D01*
X193564923Y-93275561D01*
X193469685Y-93275561D01*
X193374447Y-93227942D01*
X193326828Y-93132704D01*
X193326828Y-92894609D01*
X193279209Y-92799371D01*
X193041114Y-92466038D02*
X193041114Y-92085085D01*
X192707780Y-92323180D02*
X193564923Y-92323180D01*
X193660161Y-92275561D01*
X193707780Y-92180323D01*
X193707780Y-92085085D01*
X193707780Y-91751752D02*
X193041114Y-91751752D01*
X192707780Y-91751752D02*
X192755400Y-91799371D01*
X192803019Y-91751752D01*
X192755400Y-91704133D01*
X192707780Y-91751752D01*
X192803019Y-91751752D01*
X193707780Y-91275561D02*
X192707780Y-91275561D01*
X193088733Y-91275561D02*
X193041114Y-91180323D01*
X193041114Y-90989847D01*
X193088733Y-90894609D01*
X193136352Y-90846990D01*
X193231590Y-90799371D01*
X193517304Y-90799371D01*
X193612542Y-90846990D01*
X193660161Y-90894609D01*
X193707780Y-90989847D01*
X193707780Y-91180323D01*
X193660161Y-91275561D01*
X193707780Y-90227942D02*
X193660161Y-90323180D01*
X193564923Y-90370800D01*
X192707780Y-90370800D01*
X193660161Y-89466038D02*
X193707780Y-89561276D01*
X193707780Y-89751752D01*
X193660161Y-89846990D01*
X193564923Y-89894609D01*
X193183971Y-89894609D01*
X193088733Y-89846990D01*
X193041114Y-89751752D01*
X193041114Y-89561276D01*
X193088733Y-89466038D01*
X193183971Y-89418419D01*
X193279209Y-89418419D01*
X193374447Y-89894609D01*
X192707780Y-88227942D02*
X193517304Y-88227942D01*
X193612542Y-88180323D01*
X193660161Y-88132704D01*
X193707780Y-88037466D01*
X193707780Y-87846990D01*
X193660161Y-87751752D01*
X193612542Y-87704133D01*
X193517304Y-87656514D01*
X192707780Y-87656514D01*
X193660161Y-87227942D02*
X193707780Y-87085085D01*
X193707780Y-86846990D01*
X193660161Y-86751752D01*
X193612542Y-86704133D01*
X193517304Y-86656514D01*
X193422066Y-86656514D01*
X193326828Y-86704133D01*
X193279209Y-86751752D01*
X193231590Y-86846990D01*
X193183971Y-87037466D01*
X193136352Y-87132704D01*
X193088733Y-87180323D01*
X192993495Y-87227942D01*
X192898257Y-87227942D01*
X192803019Y-87180323D01*
X192755400Y-87132704D01*
X192707780Y-87037466D01*
X192707780Y-86799371D01*
X192755400Y-86656514D01*
X193183971Y-85894609D02*
X193231590Y-85751752D01*
X193279209Y-85704133D01*
X193374447Y-85656514D01*
X193517304Y-85656514D01*
X193612542Y-85704133D01*
X193660161Y-85751752D01*
X193707780Y-85846990D01*
X193707780Y-86227942D01*
X192707780Y-86227942D01*
X192707780Y-85894609D01*
X192755400Y-85799371D01*
X192803019Y-85751752D01*
X192898257Y-85704133D01*
X192993495Y-85704133D01*
X193088733Y-85751752D01*
X193136352Y-85799371D01*
X193183971Y-85894609D01*
X193183971Y-86227942D01*
X193707780Y-84466038D02*
X192707780Y-84466038D01*
X193707780Y-83894609D02*
X193136352Y-84323180D01*
X192707780Y-83894609D02*
X193279209Y-84466038D01*
X193660161Y-83085085D02*
X193707780Y-83180323D01*
X193707780Y-83370800D01*
X193660161Y-83466038D01*
X193564923Y-83513657D01*
X193183971Y-83513657D01*
X193088733Y-83466038D01*
X193041114Y-83370800D01*
X193041114Y-83180323D01*
X193088733Y-83085085D01*
X193183971Y-83037466D01*
X193279209Y-83037466D01*
X193374447Y-83513657D01*
X193041114Y-82704133D02*
X193707780Y-82466038D01*
X193041114Y-82227942D02*
X193707780Y-82466038D01*
X193945876Y-82561276D01*
X193993495Y-82608895D01*
X194041114Y-82704133D01*
X193707780Y-81846990D02*
X192707780Y-81846990D01*
X193088733Y-81846990D02*
X193041114Y-81751752D01*
X193041114Y-81561276D01*
X193088733Y-81466038D01*
X193136352Y-81418419D01*
X193231590Y-81370800D01*
X193517304Y-81370800D01*
X193612542Y-81418419D01*
X193660161Y-81466038D01*
X193707780Y-81561276D01*
X193707780Y-81751752D01*
X193660161Y-81846990D01*
X193707780Y-80799371D02*
X193660161Y-80894609D01*
X193612542Y-80942228D01*
X193517304Y-80989847D01*
X193231590Y-80989847D01*
X193136352Y-80942228D01*
X193088733Y-80894609D01*
X193041114Y-80799371D01*
X193041114Y-80656514D01*
X193088733Y-80561276D01*
X193136352Y-80513657D01*
X193231590Y-80466038D01*
X193517304Y-80466038D01*
X193612542Y-80513657D01*
X193660161Y-80561276D01*
X193707780Y-80656514D01*
X193707780Y-80799371D01*
X193707780Y-79608895D02*
X193183971Y-79608895D01*
X193088733Y-79656514D01*
X193041114Y-79751752D01*
X193041114Y-79942228D01*
X193088733Y-80037466D01*
X193660161Y-79608895D02*
X193707780Y-79704133D01*
X193707780Y-79942228D01*
X193660161Y-80037466D01*
X193564923Y-80085085D01*
X193469685Y-80085085D01*
X193374447Y-80037466D01*
X193326828Y-79942228D01*
X193326828Y-79704133D01*
X193279209Y-79608895D01*
X193707780Y-79132704D02*
X193041114Y-79132704D01*
X193231590Y-79132704D02*
X193136352Y-79085085D01*
X193088733Y-79037466D01*
X193041114Y-78942228D01*
X193041114Y-78846990D01*
X193707780Y-78085085D02*
X192707780Y-78085085D01*
X193660161Y-78085085D02*
X193707780Y-78180323D01*
X193707780Y-78370800D01*
X193660161Y-78466038D01*
X193612542Y-78513657D01*
X193517304Y-78561276D01*
X193231590Y-78561276D01*
X193136352Y-78513657D01*
X193088733Y-78466038D01*
X193041114Y-78370800D01*
X193041114Y-78180323D01*
X193088733Y-78085085D01*
X193707780Y-76418419D02*
X193183971Y-76418419D01*
X193088733Y-76466038D01*
X193041114Y-76561276D01*
X193041114Y-76751752D01*
X193088733Y-76846990D01*
X193660161Y-76418419D02*
X193707780Y-76513657D01*
X193707780Y-76751752D01*
X193660161Y-76846990D01*
X193564923Y-76894609D01*
X193469685Y-76894609D01*
X193374447Y-76846990D01*
X193326828Y-76751752D01*
X193326828Y-76513657D01*
X193279209Y-76418419D01*
X193041114Y-75942228D02*
X193707780Y-75942228D01*
X193136352Y-75942228D02*
X193088733Y-75894609D01*
X193041114Y-75799371D01*
X193041114Y-75656514D01*
X193088733Y-75561276D01*
X193183971Y-75513657D01*
X193707780Y-75513657D01*
X193707780Y-74608895D02*
X192707780Y-74608895D01*
X193660161Y-74608895D02*
X193707780Y-74704133D01*
X193707780Y-74894609D01*
X193660161Y-74989847D01*
X193612542Y-75037466D01*
X193517304Y-75085085D01*
X193231590Y-75085085D01*
X193136352Y-75037466D01*
X193088733Y-74989847D01*
X193041114Y-74894609D01*
X193041114Y-74704133D01*
X193088733Y-74608895D01*
X193707780Y-73370800D02*
X192707780Y-73370800D01*
X193422066Y-73037466D01*
X192707780Y-72704133D01*
X193707780Y-72704133D01*
X193707780Y-72227942D02*
X193041114Y-72227942D01*
X192707780Y-72227942D02*
X192755400Y-72275561D01*
X192803019Y-72227942D01*
X192755400Y-72180323D01*
X192707780Y-72227942D01*
X192803019Y-72227942D01*
X193660161Y-71323180D02*
X193707780Y-71418419D01*
X193707780Y-71608895D01*
X193660161Y-71704133D01*
X193612542Y-71751752D01*
X193517304Y-71799371D01*
X193231590Y-71799371D01*
X193136352Y-71751752D01*
X193088733Y-71704133D01*
X193041114Y-71608895D01*
X193041114Y-71418419D01*
X193088733Y-71323180D01*
X193660161Y-70513657D02*
X193707780Y-70608895D01*
X193707780Y-70799371D01*
X193660161Y-70894609D01*
X193564923Y-70942228D01*
X193183971Y-70942228D01*
X193088733Y-70894609D01*
X193041114Y-70799371D01*
X193041114Y-70608895D01*
X193088733Y-70513657D01*
X193183971Y-70466038D01*
X193279209Y-70466038D01*
X193374447Y-70942228D01*
X118353390Y-72985761D02*
X118496247Y-73033380D01*
X118734342Y-73033380D01*
X118829580Y-72985761D01*
X118877200Y-72938142D01*
X118924819Y-72842904D01*
X118924819Y-72747666D01*
X118877200Y-72652428D01*
X118829580Y-72604809D01*
X118734342Y-72557190D01*
X118543866Y-72509571D01*
X118448628Y-72461952D01*
X118401009Y-72414333D01*
X118353390Y-72319095D01*
X118353390Y-72223857D01*
X118401009Y-72128619D01*
X118448628Y-72081000D01*
X118543866Y-72033380D01*
X118781961Y-72033380D01*
X118924819Y-72081000D01*
X119734342Y-72985761D02*
X119639104Y-73033380D01*
X119448628Y-73033380D01*
X119353390Y-72985761D01*
X119305771Y-72890523D01*
X119305771Y-72509571D01*
X119353390Y-72414333D01*
X119448628Y-72366714D01*
X119639104Y-72366714D01*
X119734342Y-72414333D01*
X119781961Y-72509571D01*
X119781961Y-72604809D01*
X119305771Y-72700047D01*
X120067676Y-72366714D02*
X120448628Y-72366714D01*
X120210533Y-72033380D02*
X120210533Y-72890523D01*
X120258152Y-72985761D01*
X120353390Y-73033380D01*
X120448628Y-73033380D01*
X121543866Y-73033380D02*
X121543866Y-72366714D01*
X121543866Y-72033380D02*
X121496247Y-72081000D01*
X121543866Y-72128619D01*
X121591485Y-72081000D01*
X121543866Y-72033380D01*
X121543866Y-72128619D01*
X121877200Y-72366714D02*
X122258152Y-72366714D01*
X122020057Y-73033380D02*
X122020057Y-72176238D01*
X122067676Y-72081000D01*
X122162914Y-72033380D01*
X122258152Y-72033380D01*
X123353390Y-73033380D02*
X123353390Y-72033380D01*
X124401009Y-73033380D02*
X124067676Y-72557190D01*
X123829580Y-73033380D02*
X123829580Y-72033380D01*
X124210533Y-72033380D01*
X124305771Y-72081000D01*
X124353390Y-72128619D01*
X124401009Y-72223857D01*
X124401009Y-72366714D01*
X124353390Y-72461952D01*
X124305771Y-72509571D01*
X124210533Y-72557190D01*
X123829580Y-72557190D01*
X125496247Y-73128619D02*
X125401009Y-73081000D01*
X125305771Y-72985761D01*
X125162914Y-72842904D01*
X125067676Y-72795285D01*
X124972438Y-72795285D01*
X125020057Y-73033380D02*
X124924819Y-72985761D01*
X124829580Y-72890523D01*
X124781961Y-72700047D01*
X124781961Y-72366714D01*
X124829580Y-72176238D01*
X124924819Y-72081000D01*
X125020057Y-72033380D01*
X125210533Y-72033380D01*
X125305771Y-72081000D01*
X125401009Y-72176238D01*
X125448628Y-72366714D01*
X125448628Y-72700047D01*
X125401009Y-72890523D01*
X125305771Y-72985761D01*
X125210533Y-73033380D01*
X125020057Y-73033380D01*
X126401009Y-73033380D02*
X125829580Y-73033380D01*
X126115295Y-73033380D02*
X126115295Y-72033380D01*
X126020057Y-72176238D01*
X125924819Y-72271476D01*
X125829580Y-72319095D01*
X118805771Y-74683380D02*
X118805771Y-74016714D01*
X118805771Y-73683380D02*
X118758152Y-73731000D01*
X118805771Y-73778619D01*
X118853390Y-73731000D01*
X118805771Y-73683380D01*
X118805771Y-73778619D01*
X119234342Y-74635761D02*
X119329580Y-74683380D01*
X119520057Y-74683380D01*
X119615295Y-74635761D01*
X119662914Y-74540523D01*
X119662914Y-74492904D01*
X119615295Y-74397666D01*
X119520057Y-74350047D01*
X119377200Y-74350047D01*
X119281961Y-74302428D01*
X119234342Y-74207190D01*
X119234342Y-74159571D01*
X119281961Y-74064333D01*
X119377200Y-74016714D01*
X119520057Y-74016714D01*
X119615295Y-74064333D01*
X120853390Y-74683380D02*
X120853390Y-73683380D01*
X121520057Y-73683380D02*
X121710533Y-73683380D01*
X121805771Y-73731000D01*
X121901009Y-73826238D01*
X121948628Y-74016714D01*
X121948628Y-74350047D01*
X121901009Y-74540523D01*
X121805771Y-74635761D01*
X121710533Y-74683380D01*
X121520057Y-74683380D01*
X121424819Y-74635761D01*
X121329580Y-74540523D01*
X121281961Y-74350047D01*
X121281961Y-74016714D01*
X121329580Y-73826238D01*
X121424819Y-73731000D01*
X121520057Y-73683380D01*
X122948628Y-74588142D02*
X122901009Y-74635761D01*
X122758152Y-74683380D01*
X122662914Y-74683380D01*
X122520057Y-74635761D01*
X122424819Y-74540523D01*
X122377200Y-74445285D01*
X122329580Y-74254809D01*
X122329580Y-74111952D01*
X122377200Y-73921476D01*
X122424819Y-73826238D01*
X122520057Y-73731000D01*
X122662914Y-73683380D01*
X122758152Y-73683380D01*
X122901009Y-73731000D01*
X122948628Y-73778619D01*
X123377200Y-74683380D02*
X123377200Y-73683380D01*
X123377200Y-74159571D02*
X123948628Y-74159571D01*
X123948628Y-74683380D02*
X123948628Y-73683380D01*
X124996247Y-74588142D02*
X124948628Y-74635761D01*
X124805771Y-74683380D01*
X124710533Y-74683380D01*
X124567676Y-74635761D01*
X124472438Y-74540523D01*
X124424819Y-74445285D01*
X124377200Y-74254809D01*
X124377200Y-74111952D01*
X124424819Y-73921476D01*
X124472438Y-73826238D01*
X124567676Y-73731000D01*
X124710533Y-73683380D01*
X124805771Y-73683380D01*
X124948628Y-73731000D01*
X124996247Y-73778619D01*
X125424819Y-74683380D02*
X125424819Y-73683380D01*
X125996247Y-74683380D02*
X125567676Y-74111952D01*
X125996247Y-73683380D02*
X125424819Y-74254809D01*
X101554019Y-111957314D02*
X102554019Y-111957314D01*
X101839733Y-112290647D01*
X102554019Y-112623980D01*
X101554019Y-112623980D01*
X101554019Y-113243028D02*
X101601638Y-113147790D01*
X101649257Y-113100171D01*
X101744495Y-113052552D01*
X102030209Y-113052552D01*
X102125447Y-113100171D01*
X102173066Y-113147790D01*
X102220685Y-113243028D01*
X102220685Y-113385885D01*
X102173066Y-113481123D01*
X102125447Y-113528742D01*
X102030209Y-113576361D01*
X101744495Y-113576361D01*
X101649257Y-113528742D01*
X101601638Y-113481123D01*
X101554019Y-113385885D01*
X101554019Y-113243028D01*
X102220685Y-114433504D02*
X101554019Y-114433504D01*
X102220685Y-114004933D02*
X101696876Y-114004933D01*
X101601638Y-114052552D01*
X101554019Y-114147790D01*
X101554019Y-114290647D01*
X101601638Y-114385885D01*
X101649257Y-114433504D01*
X101601638Y-114862076D02*
X101554019Y-114957314D01*
X101554019Y-115147790D01*
X101601638Y-115243028D01*
X101696876Y-115290647D01*
X101744495Y-115290647D01*
X101839733Y-115243028D01*
X101887352Y-115147790D01*
X101887352Y-115004933D01*
X101934971Y-114909695D01*
X102030209Y-114862076D01*
X102077828Y-114862076D01*
X102173066Y-114909695D01*
X102220685Y-115004933D01*
X102220685Y-115147790D01*
X102173066Y-115243028D01*
X101601638Y-116100171D02*
X101554019Y-116004933D01*
X101554019Y-115814457D01*
X101601638Y-115719219D01*
X101696876Y-115671600D01*
X102077828Y-115671600D01*
X102173066Y-115719219D01*
X102220685Y-115814457D01*
X102220685Y-116004933D01*
X102173066Y-116100171D01*
X102077828Y-116147790D01*
X101982590Y-116147790D01*
X101887352Y-115671600D01*
X101554019Y-117338266D02*
X102554019Y-117338266D01*
X101554019Y-118385885D02*
X102030209Y-118052552D01*
X101554019Y-117814457D02*
X102554019Y-117814457D01*
X102554019Y-118195409D01*
X102506400Y-118290647D01*
X102458780Y-118338266D01*
X102363542Y-118385885D01*
X102220685Y-118385885D01*
X102125447Y-118338266D01*
X102077828Y-118290647D01*
X102030209Y-118195409D01*
X102030209Y-117814457D01*
X101458780Y-119481123D02*
X101506400Y-119385885D01*
X101601638Y-119290647D01*
X101744495Y-119147790D01*
X101792114Y-119052552D01*
X101792114Y-118957314D01*
X101554019Y-119004933D02*
X101601638Y-118909695D01*
X101696876Y-118814457D01*
X101887352Y-118766838D01*
X102220685Y-118766838D01*
X102411161Y-118814457D01*
X102506400Y-118909695D01*
X102554019Y-119004933D01*
X102554019Y-119195409D01*
X102506400Y-119290647D01*
X102411161Y-119385885D01*
X102220685Y-119433504D01*
X101887352Y-119433504D01*
X101696876Y-119385885D01*
X101601638Y-119290647D01*
X101554019Y-119195409D01*
X101554019Y-119004933D01*
X103910000Y-125613380D02*
X103910000Y-124613380D01*
X104957619Y-125613380D02*
X104624285Y-125137190D01*
X104386190Y-125613380D02*
X104386190Y-124613380D01*
X104767142Y-124613380D01*
X104862380Y-124661000D01*
X104910000Y-124708619D01*
X104957619Y-124803857D01*
X104957619Y-124946714D01*
X104910000Y-125041952D01*
X104862380Y-125089571D01*
X104767142Y-125137190D01*
X104386190Y-125137190D01*
X106052857Y-125708619D02*
X105957619Y-125661000D01*
X105862380Y-125565761D01*
X105719523Y-125422904D01*
X105624285Y-125375285D01*
X105529047Y-125375285D01*
X105576666Y-125613380D02*
X105481428Y-125565761D01*
X105386190Y-125470523D01*
X105338571Y-125280047D01*
X105338571Y-124946714D01*
X105386190Y-124756238D01*
X105481428Y-124661000D01*
X105576666Y-124613380D01*
X105767142Y-124613380D01*
X105862380Y-124661000D01*
X105957619Y-124756238D01*
X106005238Y-124946714D01*
X106005238Y-125280047D01*
X105957619Y-125470523D01*
X105862380Y-125565761D01*
X105767142Y-125613380D01*
X105576666Y-125613380D01*
X106481428Y-125613380D02*
X106671904Y-125613380D01*
X106767142Y-125565761D01*
X106814761Y-125518142D01*
X106910000Y-125375285D01*
X106957619Y-125184809D01*
X106957619Y-124803857D01*
X106910000Y-124708619D01*
X106862380Y-124661000D01*
X106767142Y-124613380D01*
X106576666Y-124613380D01*
X106481428Y-124661000D01*
X106433809Y-124708619D01*
X106386190Y-124803857D01*
X106386190Y-125041952D01*
X106433809Y-125137190D01*
X106481428Y-125184809D01*
X106576666Y-125232428D01*
X106767142Y-125232428D01*
X106862380Y-125184809D01*
X106910000Y-125137190D01*
X106957619Y-125041952D01*
X103910000Y-127263380D02*
X103910000Y-126263380D01*
X104957619Y-127263380D02*
X104624285Y-126787190D01*
X104386190Y-127263380D02*
X104386190Y-126263380D01*
X104767142Y-126263380D01*
X104862380Y-126311000D01*
X104910000Y-126358619D01*
X104957619Y-126453857D01*
X104957619Y-126596714D01*
X104910000Y-126691952D01*
X104862380Y-126739571D01*
X104767142Y-126787190D01*
X104386190Y-126787190D01*
X106052857Y-127358619D02*
X105957619Y-127311000D01*
X105862380Y-127215761D01*
X105719523Y-127072904D01*
X105624285Y-127025285D01*
X105529047Y-127025285D01*
X105576666Y-127263380D02*
X105481428Y-127215761D01*
X105386190Y-127120523D01*
X105338571Y-126930047D01*
X105338571Y-126596714D01*
X105386190Y-126406238D01*
X105481428Y-126311000D01*
X105576666Y-126263380D01*
X105767142Y-126263380D01*
X105862380Y-126311000D01*
X105957619Y-126406238D01*
X106005238Y-126596714D01*
X106005238Y-126930047D01*
X105957619Y-127120523D01*
X105862380Y-127215761D01*
X105767142Y-127263380D01*
X105576666Y-127263380D01*
X106338571Y-126263380D02*
X107005238Y-126263380D01*
X106576666Y-127263380D01*
X103910000Y-128913380D02*
X103910000Y-127913380D01*
X104957619Y-128913380D02*
X104624285Y-128437190D01*
X104386190Y-128913380D02*
X104386190Y-127913380D01*
X104767142Y-127913380D01*
X104862380Y-127961000D01*
X104910000Y-128008619D01*
X104957619Y-128103857D01*
X104957619Y-128246714D01*
X104910000Y-128341952D01*
X104862380Y-128389571D01*
X104767142Y-128437190D01*
X104386190Y-128437190D01*
X106052857Y-129008619D02*
X105957619Y-128961000D01*
X105862380Y-128865761D01*
X105719523Y-128722904D01*
X105624285Y-128675285D01*
X105529047Y-128675285D01*
X105576666Y-128913380D02*
X105481428Y-128865761D01*
X105386190Y-128770523D01*
X105338571Y-128580047D01*
X105338571Y-128246714D01*
X105386190Y-128056238D01*
X105481428Y-127961000D01*
X105576666Y-127913380D01*
X105767142Y-127913380D01*
X105862380Y-127961000D01*
X105957619Y-128056238D01*
X106005238Y-128246714D01*
X106005238Y-128580047D01*
X105957619Y-128770523D01*
X105862380Y-128865761D01*
X105767142Y-128913380D01*
X105576666Y-128913380D01*
X106862380Y-127913380D02*
X106671904Y-127913380D01*
X106576666Y-127961000D01*
X106529047Y-128008619D01*
X106433809Y-128151476D01*
X106386190Y-128341952D01*
X106386190Y-128722904D01*
X106433809Y-128818142D01*
X106481428Y-128865761D01*
X106576666Y-128913380D01*
X106767142Y-128913380D01*
X106862380Y-128865761D01*
X106910000Y-128818142D01*
X106957619Y-128722904D01*
X106957619Y-128484809D01*
X106910000Y-128389571D01*
X106862380Y-128341952D01*
X106767142Y-128294333D01*
X106576666Y-128294333D01*
X106481428Y-128341952D01*
X106433809Y-128389571D01*
X106386190Y-128484809D01*
X103910000Y-130563380D02*
X103910000Y-129563380D01*
X104957619Y-130563380D02*
X104624285Y-130087190D01*
X104386190Y-130563380D02*
X104386190Y-129563380D01*
X104767142Y-129563380D01*
X104862380Y-129611000D01*
X104910000Y-129658619D01*
X104957619Y-129753857D01*
X104957619Y-129896714D01*
X104910000Y-129991952D01*
X104862380Y-130039571D01*
X104767142Y-130087190D01*
X104386190Y-130087190D01*
X106052857Y-130658619D02*
X105957619Y-130611000D01*
X105862380Y-130515761D01*
X105719523Y-130372904D01*
X105624285Y-130325285D01*
X105529047Y-130325285D01*
X105576666Y-130563380D02*
X105481428Y-130515761D01*
X105386190Y-130420523D01*
X105338571Y-130230047D01*
X105338571Y-129896714D01*
X105386190Y-129706238D01*
X105481428Y-129611000D01*
X105576666Y-129563380D01*
X105767142Y-129563380D01*
X105862380Y-129611000D01*
X105957619Y-129706238D01*
X106005238Y-129896714D01*
X106005238Y-130230047D01*
X105957619Y-130420523D01*
X105862380Y-130515761D01*
X105767142Y-130563380D01*
X105576666Y-130563380D01*
X106910000Y-129563380D02*
X106433809Y-129563380D01*
X106386190Y-130039571D01*
X106433809Y-129991952D01*
X106529047Y-129944333D01*
X106767142Y-129944333D01*
X106862380Y-129991952D01*
X106910000Y-130039571D01*
X106957619Y-130134809D01*
X106957619Y-130372904D01*
X106910000Y-130468142D01*
X106862380Y-130515761D01*
X106767142Y-130563380D01*
X106529047Y-130563380D01*
X106433809Y-130515761D01*
X106386190Y-130468142D01*
X103910000Y-132213380D02*
X103910000Y-131213380D01*
X104957619Y-132213380D02*
X104624285Y-131737190D01*
X104386190Y-132213380D02*
X104386190Y-131213380D01*
X104767142Y-131213380D01*
X104862380Y-131261000D01*
X104910000Y-131308619D01*
X104957619Y-131403857D01*
X104957619Y-131546714D01*
X104910000Y-131641952D01*
X104862380Y-131689571D01*
X104767142Y-131737190D01*
X104386190Y-131737190D01*
X106052857Y-132308619D02*
X105957619Y-132261000D01*
X105862380Y-132165761D01*
X105719523Y-132022904D01*
X105624285Y-131975285D01*
X105529047Y-131975285D01*
X105576666Y-132213380D02*
X105481428Y-132165761D01*
X105386190Y-132070523D01*
X105338571Y-131880047D01*
X105338571Y-131546714D01*
X105386190Y-131356238D01*
X105481428Y-131261000D01*
X105576666Y-131213380D01*
X105767142Y-131213380D01*
X105862380Y-131261000D01*
X105957619Y-131356238D01*
X106005238Y-131546714D01*
X106005238Y-131880047D01*
X105957619Y-132070523D01*
X105862380Y-132165761D01*
X105767142Y-132213380D01*
X105576666Y-132213380D01*
X106862380Y-131546714D02*
X106862380Y-132213380D01*
X106624285Y-131165761D02*
X106386190Y-131880047D01*
X107005238Y-131880047D01*
X103910000Y-133863380D02*
X103910000Y-132863380D01*
X104957619Y-133863380D02*
X104624285Y-133387190D01*
X104386190Y-133863380D02*
X104386190Y-132863380D01*
X104767142Y-132863380D01*
X104862380Y-132911000D01*
X104910000Y-132958619D01*
X104957619Y-133053857D01*
X104957619Y-133196714D01*
X104910000Y-133291952D01*
X104862380Y-133339571D01*
X104767142Y-133387190D01*
X104386190Y-133387190D01*
X106052857Y-133958619D02*
X105957619Y-133911000D01*
X105862380Y-133815761D01*
X105719523Y-133672904D01*
X105624285Y-133625285D01*
X105529047Y-133625285D01*
X105576666Y-133863380D02*
X105481428Y-133815761D01*
X105386190Y-133720523D01*
X105338571Y-133530047D01*
X105338571Y-133196714D01*
X105386190Y-133006238D01*
X105481428Y-132911000D01*
X105576666Y-132863380D01*
X105767142Y-132863380D01*
X105862380Y-132911000D01*
X105957619Y-133006238D01*
X106005238Y-133196714D01*
X106005238Y-133530047D01*
X105957619Y-133720523D01*
X105862380Y-133815761D01*
X105767142Y-133863380D01*
X105576666Y-133863380D01*
X106338571Y-132863380D02*
X106957619Y-132863380D01*
X106624285Y-133244333D01*
X106767142Y-133244333D01*
X106862380Y-133291952D01*
X106910000Y-133339571D01*
X106957619Y-133434809D01*
X106957619Y-133672904D01*
X106910000Y-133768142D01*
X106862380Y-133815761D01*
X106767142Y-133863380D01*
X106481428Y-133863380D01*
X106386190Y-133815761D01*
X106338571Y-133768142D01*
X106620247Y-71699028D02*
X106667866Y-71603790D01*
X106715485Y-71556171D01*
X106810723Y-71508552D01*
X106858342Y-71508552D01*
X106953580Y-71556171D01*
X107001200Y-71603790D01*
X107048819Y-71699028D01*
X107048819Y-71889504D01*
X107001200Y-71984742D01*
X106953580Y-72032361D01*
X106858342Y-72079980D01*
X106810723Y-72079980D01*
X106715485Y-72032361D01*
X106667866Y-71984742D01*
X106620247Y-71889504D01*
X106620247Y-71699028D01*
X106572628Y-71603790D01*
X106525009Y-71556171D01*
X106429771Y-71508552D01*
X106239295Y-71508552D01*
X106144057Y-71556171D01*
X106096438Y-71603790D01*
X106048819Y-71699028D01*
X106048819Y-71889504D01*
X106096438Y-71984742D01*
X106144057Y-72032361D01*
X106239295Y-72079980D01*
X106429771Y-72079980D01*
X106525009Y-72032361D01*
X106572628Y-71984742D01*
X106620247Y-71889504D01*
X107048819Y-72699028D02*
X107048819Y-72794266D01*
X107001200Y-72889504D01*
X106953580Y-72937123D01*
X106858342Y-72984742D01*
X106667866Y-73032361D01*
X106429771Y-73032361D01*
X106239295Y-72984742D01*
X106144057Y-72937123D01*
X106096438Y-72889504D01*
X106048819Y-72794266D01*
X106048819Y-72699028D01*
X106096438Y-72603790D01*
X106144057Y-72556171D01*
X106239295Y-72508552D01*
X106429771Y-72460933D01*
X106667866Y-72460933D01*
X106858342Y-72508552D01*
X106953580Y-72556171D01*
X107001200Y-72603790D01*
X107048819Y-72699028D01*
X106715485Y-73889504D02*
X106048819Y-73889504D01*
X107096438Y-73651409D02*
X106382152Y-73413314D01*
X106382152Y-74032361D01*
X106953580Y-74365695D02*
X107001200Y-74413314D01*
X107048819Y-74508552D01*
X107048819Y-74746647D01*
X107001200Y-74841885D01*
X106953580Y-74889504D01*
X106858342Y-74937123D01*
X106763104Y-74937123D01*
X106620247Y-74889504D01*
X106048819Y-74318076D01*
X106048819Y-74937123D01*
X106048819Y-76127600D02*
X107048819Y-76127600D01*
X106048819Y-76699028D02*
X106620247Y-76270457D01*
X107048819Y-76699028D02*
X106477390Y-76127600D01*
X106096438Y-77508552D02*
X106048819Y-77413314D01*
X106048819Y-77222838D01*
X106096438Y-77127600D01*
X106191676Y-77079980D01*
X106572628Y-77079980D01*
X106667866Y-77127600D01*
X106715485Y-77222838D01*
X106715485Y-77413314D01*
X106667866Y-77508552D01*
X106572628Y-77556171D01*
X106477390Y-77556171D01*
X106382152Y-77079980D01*
X106715485Y-77889504D02*
X106048819Y-78127600D01*
X106715485Y-78365695D02*
X106048819Y-78127600D01*
X105810723Y-78032361D01*
X105763104Y-77984742D01*
X105715485Y-77889504D01*
X106048819Y-78746647D02*
X107048819Y-78746647D01*
X106667866Y-78746647D02*
X106715485Y-78841885D01*
X106715485Y-79032361D01*
X106667866Y-79127600D01*
X106620247Y-79175219D01*
X106525009Y-79222838D01*
X106239295Y-79222838D01*
X106144057Y-79175219D01*
X106096438Y-79127600D01*
X106048819Y-79032361D01*
X106048819Y-78841885D01*
X106096438Y-78746647D01*
X106048819Y-79794266D02*
X106096438Y-79699028D01*
X106144057Y-79651409D01*
X106239295Y-79603790D01*
X106525009Y-79603790D01*
X106620247Y-79651409D01*
X106667866Y-79699028D01*
X106715485Y-79794266D01*
X106715485Y-79937123D01*
X106667866Y-80032361D01*
X106620247Y-80079980D01*
X106525009Y-80127600D01*
X106239295Y-80127600D01*
X106144057Y-80079980D01*
X106096438Y-80032361D01*
X106048819Y-79937123D01*
X106048819Y-79794266D01*
X106048819Y-80984742D02*
X106572628Y-80984742D01*
X106667866Y-80937123D01*
X106715485Y-80841885D01*
X106715485Y-80651409D01*
X106667866Y-80556171D01*
X106096438Y-80984742D02*
X106048819Y-80889504D01*
X106048819Y-80651409D01*
X106096438Y-80556171D01*
X106191676Y-80508552D01*
X106286914Y-80508552D01*
X106382152Y-80556171D01*
X106429771Y-80651409D01*
X106429771Y-80889504D01*
X106477390Y-80984742D01*
X106048819Y-81460933D02*
X106715485Y-81460933D01*
X106525009Y-81460933D02*
X106620247Y-81508552D01*
X106667866Y-81556171D01*
X106715485Y-81651409D01*
X106715485Y-81746647D01*
X106048819Y-82508552D02*
X107048819Y-82508552D01*
X106096438Y-82508552D02*
X106048819Y-82413314D01*
X106048819Y-82222838D01*
X106096438Y-82127600D01*
X106144057Y-82079980D01*
X106239295Y-82032361D01*
X106525009Y-82032361D01*
X106620247Y-82079980D01*
X106667866Y-82127600D01*
X106715485Y-82222838D01*
X106715485Y-82413314D01*
X106667866Y-82508552D01*
X106144057Y-84318076D02*
X106096438Y-84270457D01*
X106048819Y-84127600D01*
X106048819Y-84032361D01*
X106096438Y-83889504D01*
X106191676Y-83794266D01*
X106286914Y-83746647D01*
X106477390Y-83699028D01*
X106620247Y-83699028D01*
X106810723Y-83746647D01*
X106905961Y-83794266D01*
X107001200Y-83889504D01*
X107048819Y-84032361D01*
X107048819Y-84127600D01*
X107001200Y-84270457D01*
X106953580Y-84318076D01*
X106048819Y-84889504D02*
X106096438Y-84794266D01*
X106144057Y-84746647D01*
X106239295Y-84699028D01*
X106525009Y-84699028D01*
X106620247Y-84746647D01*
X106667866Y-84794266D01*
X106715485Y-84889504D01*
X106715485Y-85032361D01*
X106667866Y-85127600D01*
X106620247Y-85175219D01*
X106525009Y-85222838D01*
X106239295Y-85222838D01*
X106144057Y-85175219D01*
X106096438Y-85127600D01*
X106048819Y-85032361D01*
X106048819Y-84889504D01*
X106715485Y-85651409D02*
X106048819Y-85651409D01*
X106620247Y-85651409D02*
X106667866Y-85699028D01*
X106715485Y-85794266D01*
X106715485Y-85937123D01*
X106667866Y-86032361D01*
X106572628Y-86079980D01*
X106048819Y-86079980D01*
X106715485Y-86413314D02*
X106715485Y-86794266D01*
X107048819Y-86556171D02*
X106191676Y-86556171D01*
X106096438Y-86603790D01*
X106048819Y-86699028D01*
X106048819Y-86794266D01*
X106048819Y-87127600D02*
X106715485Y-87127600D01*
X106525009Y-87127600D02*
X106620247Y-87175219D01*
X106667866Y-87222838D01*
X106715485Y-87318076D01*
X106715485Y-87413314D01*
X106048819Y-87889504D02*
X106096438Y-87794266D01*
X106144057Y-87746647D01*
X106239295Y-87699028D01*
X106525009Y-87699028D01*
X106620247Y-87746647D01*
X106667866Y-87794266D01*
X106715485Y-87889504D01*
X106715485Y-88032361D01*
X106667866Y-88127600D01*
X106620247Y-88175219D01*
X106525009Y-88222838D01*
X106239295Y-88222838D01*
X106144057Y-88175219D01*
X106096438Y-88127600D01*
X106048819Y-88032361D01*
X106048819Y-87889504D01*
X106048819Y-88794266D02*
X106096438Y-88699028D01*
X106191676Y-88651409D01*
X107048819Y-88651409D01*
X106048819Y-89318076D02*
X106096438Y-89222838D01*
X106191676Y-89175219D01*
X107048819Y-89175219D01*
X106096438Y-90079980D02*
X106048819Y-89984742D01*
X106048819Y-89794266D01*
X106096438Y-89699028D01*
X106191676Y-89651409D01*
X106572628Y-89651409D01*
X106667866Y-89699028D01*
X106715485Y-89794266D01*
X106715485Y-89984742D01*
X106667866Y-90079980D01*
X106572628Y-90127600D01*
X106477390Y-90127600D01*
X106382152Y-89651409D01*
X106048819Y-90556171D02*
X106715485Y-90556171D01*
X106525009Y-90556171D02*
X106620247Y-90603790D01*
X106667866Y-90651409D01*
X106715485Y-90746647D01*
X106715485Y-90841885D01*
X104398819Y-71294266D02*
X105398819Y-71294266D01*
X105398819Y-71960933D02*
X105398819Y-72151409D01*
X105351200Y-72246647D01*
X105255961Y-72341885D01*
X105065485Y-72389504D01*
X104732152Y-72389504D01*
X104541676Y-72341885D01*
X104446438Y-72246647D01*
X104398819Y-72151409D01*
X104398819Y-71960933D01*
X104446438Y-71865695D01*
X104541676Y-71770457D01*
X104732152Y-71722838D01*
X105065485Y-71722838D01*
X105255961Y-71770457D01*
X105351200Y-71865695D01*
X105398819Y-71960933D01*
X104684533Y-73532361D02*
X104684533Y-74008552D01*
X104398819Y-73437123D02*
X105398819Y-73770457D01*
X104398819Y-74103790D01*
X104398819Y-74865695D02*
X105398819Y-74865695D01*
X104446438Y-74865695D02*
X104398819Y-74770457D01*
X104398819Y-74579980D01*
X104446438Y-74484742D01*
X104494057Y-74437123D01*
X104589295Y-74389504D01*
X104875009Y-74389504D01*
X104970247Y-74437123D01*
X105017866Y-74484742D01*
X105065485Y-74579980D01*
X105065485Y-74770457D01*
X105017866Y-74865695D01*
X104398819Y-75770457D02*
X105398819Y-75770457D01*
X104446438Y-75770457D02*
X104398819Y-75675219D01*
X104398819Y-75484742D01*
X104446438Y-75389504D01*
X104494057Y-75341885D01*
X104589295Y-75294266D01*
X104875009Y-75294266D01*
X104970247Y-75341885D01*
X105017866Y-75389504D01*
X105065485Y-75484742D01*
X105065485Y-75675219D01*
X105017866Y-75770457D01*
X104398819Y-76246647D02*
X105065485Y-76246647D01*
X104875009Y-76246647D02*
X104970247Y-76294266D01*
X105017866Y-76341885D01*
X105065485Y-76437123D01*
X105065485Y-76532361D01*
X104446438Y-77246647D02*
X104398819Y-77151409D01*
X104398819Y-76960933D01*
X104446438Y-76865695D01*
X104541676Y-76818076D01*
X104922628Y-76818076D01*
X105017866Y-76865695D01*
X105065485Y-76960933D01*
X105065485Y-77151409D01*
X105017866Y-77246647D01*
X104922628Y-77294266D01*
X104827390Y-77294266D01*
X104732152Y-76818076D01*
X104446438Y-77675219D02*
X104398819Y-77770457D01*
X104398819Y-77960933D01*
X104446438Y-78056171D01*
X104541676Y-78103790D01*
X104589295Y-78103790D01*
X104684533Y-78056171D01*
X104732152Y-77960933D01*
X104732152Y-77818076D01*
X104779771Y-77722838D01*
X104875009Y-77675219D01*
X104922628Y-77675219D01*
X105017866Y-77722838D01*
X105065485Y-77818076D01*
X105065485Y-77960933D01*
X105017866Y-78056171D01*
X104446438Y-78484742D02*
X104398819Y-78579980D01*
X104398819Y-78770457D01*
X104446438Y-78865695D01*
X104541676Y-78913314D01*
X104589295Y-78913314D01*
X104684533Y-78865695D01*
X104732152Y-78770457D01*
X104732152Y-78627600D01*
X104779771Y-78532361D01*
X104875009Y-78484742D01*
X104922628Y-78484742D01*
X105017866Y-78532361D01*
X105065485Y-78627600D01*
X105065485Y-78770457D01*
X105017866Y-78865695D01*
X105398819Y-80294266D02*
X105398819Y-80389504D01*
X105351200Y-80484742D01*
X105303580Y-80532361D01*
X105208342Y-80579980D01*
X105017866Y-80627600D01*
X104779771Y-80627600D01*
X104589295Y-80579980D01*
X104494057Y-80532361D01*
X104446438Y-80484742D01*
X104398819Y-80389504D01*
X104398819Y-80294266D01*
X104446438Y-80199028D01*
X104494057Y-80151409D01*
X104589295Y-80103790D01*
X104779771Y-80056171D01*
X105017866Y-80056171D01*
X105208342Y-80103790D01*
X105303580Y-80151409D01*
X105351200Y-80199028D01*
X105398819Y-80294266D01*
X104398819Y-80960933D02*
X105065485Y-81484742D01*
X105065485Y-80960933D02*
X104398819Y-81484742D01*
X105398819Y-82294266D02*
X105398819Y-82103790D01*
X105351200Y-82008552D01*
X105303580Y-81960933D01*
X105160723Y-81865695D01*
X104970247Y-81818076D01*
X104589295Y-81818076D01*
X104494057Y-81865695D01*
X104446438Y-81913314D01*
X104398819Y-82008552D01*
X104398819Y-82199028D01*
X104446438Y-82294266D01*
X104494057Y-82341885D01*
X104589295Y-82389504D01*
X104827390Y-82389504D01*
X104922628Y-82341885D01*
X104970247Y-82294266D01*
X105017866Y-82199028D01*
X105017866Y-82008552D01*
X104970247Y-81913314D01*
X104922628Y-81865695D01*
X104827390Y-81818076D01*
X105398819Y-83008552D02*
X105398819Y-83103790D01*
X105351200Y-83199028D01*
X105303580Y-83246647D01*
X105208342Y-83294266D01*
X105017866Y-83341885D01*
X104779771Y-83341885D01*
X104589295Y-83294266D01*
X104494057Y-83246647D01*
X104446438Y-83199028D01*
X104398819Y-83103790D01*
X104398819Y-83008552D01*
X104446438Y-82913314D01*
X104494057Y-82865695D01*
X104589295Y-82818076D01*
X104779771Y-82770457D01*
X105017866Y-82770457D01*
X105208342Y-82818076D01*
X105303580Y-82865695D01*
X105351200Y-82913314D01*
X105398819Y-83008552D01*
X104779771Y-84532361D02*
X104779771Y-85294266D01*
X105065485Y-85770457D02*
X104779771Y-86532361D01*
X104494057Y-85770457D01*
X105398819Y-87960933D02*
X105398819Y-88056171D01*
X105351200Y-88151409D01*
X105303580Y-88199028D01*
X105208342Y-88246647D01*
X105017866Y-88294266D01*
X104779771Y-88294266D01*
X104589295Y-88246647D01*
X104494057Y-88199028D01*
X104446438Y-88151409D01*
X104398819Y-88056171D01*
X104398819Y-87960933D01*
X104446438Y-87865695D01*
X104494057Y-87818076D01*
X104589295Y-87770457D01*
X104779771Y-87722838D01*
X105017866Y-87722838D01*
X105208342Y-87770457D01*
X105303580Y-87818076D01*
X105351200Y-87865695D01*
X105398819Y-87960933D01*
X104398819Y-88627600D02*
X105065485Y-89151409D01*
X105065485Y-88627600D02*
X104398819Y-89151409D01*
X105398819Y-89960933D02*
X105398819Y-89770457D01*
X105351200Y-89675219D01*
X105303580Y-89627600D01*
X105160723Y-89532361D01*
X104970247Y-89484742D01*
X104589295Y-89484742D01*
X104494057Y-89532361D01*
X104446438Y-89579980D01*
X104398819Y-89675219D01*
X104398819Y-89865695D01*
X104446438Y-89960933D01*
X104494057Y-90008552D01*
X104589295Y-90056171D01*
X104827390Y-90056171D01*
X104922628Y-90008552D01*
X104970247Y-89960933D01*
X105017866Y-89865695D01*
X105017866Y-89675219D01*
X104970247Y-89579980D01*
X104922628Y-89532361D01*
X104827390Y-89484742D01*
X105398819Y-90389504D02*
X105398819Y-91056171D01*
X104398819Y-90627600D01*
X102748819Y-70484742D02*
X103748819Y-70484742D01*
X103748819Y-70722838D01*
X103701200Y-70865695D01*
X103605961Y-70960933D01*
X103510723Y-71008552D01*
X103320247Y-71056171D01*
X103177390Y-71056171D01*
X102986914Y-71008552D01*
X102891676Y-70960933D01*
X102796438Y-70865695D01*
X102748819Y-70722838D01*
X102748819Y-70484742D01*
X102796438Y-71865695D02*
X102748819Y-71770457D01*
X102748819Y-71579980D01*
X102796438Y-71484742D01*
X102891676Y-71437123D01*
X103272628Y-71437123D01*
X103367866Y-71484742D01*
X103415485Y-71579980D01*
X103415485Y-71770457D01*
X103367866Y-71865695D01*
X103272628Y-71913314D01*
X103177390Y-71913314D01*
X103082152Y-71437123D01*
X102796438Y-72294266D02*
X102748819Y-72389504D01*
X102748819Y-72579980D01*
X102796438Y-72675219D01*
X102891676Y-72722838D01*
X102939295Y-72722838D01*
X103034533Y-72675219D01*
X103082152Y-72579980D01*
X103082152Y-72437123D01*
X103129771Y-72341885D01*
X103225009Y-72294266D01*
X103272628Y-72294266D01*
X103367866Y-72341885D01*
X103415485Y-72437123D01*
X103415485Y-72579980D01*
X103367866Y-72675219D01*
X102748819Y-73151409D02*
X103415485Y-73151409D01*
X103748819Y-73151409D02*
X103701200Y-73103790D01*
X103653580Y-73151409D01*
X103701200Y-73199028D01*
X103748819Y-73151409D01*
X103653580Y-73151409D01*
X103415485Y-74056171D02*
X102605961Y-74056171D01*
X102510723Y-74008552D01*
X102463104Y-73960933D01*
X102415485Y-73865695D01*
X102415485Y-73722838D01*
X102463104Y-73627600D01*
X102796438Y-74056171D02*
X102748819Y-73960933D01*
X102748819Y-73770457D01*
X102796438Y-73675219D01*
X102844057Y-73627600D01*
X102939295Y-73579980D01*
X103225009Y-73579980D01*
X103320247Y-73627600D01*
X103367866Y-73675219D01*
X103415485Y-73770457D01*
X103415485Y-73960933D01*
X103367866Y-74056171D01*
X103415485Y-74532361D02*
X102748819Y-74532361D01*
X103320247Y-74532361D02*
X103367866Y-74579980D01*
X103415485Y-74675219D01*
X103415485Y-74818076D01*
X103367866Y-74913314D01*
X103272628Y-74960933D01*
X102748819Y-74960933D01*
X102796438Y-75818076D02*
X102748819Y-75722838D01*
X102748819Y-75532361D01*
X102796438Y-75437123D01*
X102891676Y-75389504D01*
X103272628Y-75389504D01*
X103367866Y-75437123D01*
X103415485Y-75532361D01*
X103415485Y-75722838D01*
X103367866Y-75818076D01*
X103272628Y-75865695D01*
X103177390Y-75865695D01*
X103082152Y-75389504D01*
X102748819Y-76722838D02*
X103748819Y-76722838D01*
X102796438Y-76722838D02*
X102748819Y-76627600D01*
X102748819Y-76437123D01*
X102796438Y-76341885D01*
X102844057Y-76294266D01*
X102939295Y-76246647D01*
X103225009Y-76246647D01*
X103320247Y-76294266D01*
X103367866Y-76341885D01*
X103415485Y-76437123D01*
X103415485Y-76627600D01*
X103367866Y-76722838D01*
X102748819Y-77960933D02*
X103748819Y-77960933D01*
X103367866Y-77960933D02*
X103415485Y-78056171D01*
X103415485Y-78246647D01*
X103367866Y-78341885D01*
X103320247Y-78389504D01*
X103225009Y-78437123D01*
X102939295Y-78437123D01*
X102844057Y-78389504D01*
X102796438Y-78341885D01*
X102748819Y-78246647D01*
X102748819Y-78056171D01*
X102796438Y-77960933D01*
X103415485Y-78770457D02*
X102748819Y-79008552D01*
X103415485Y-79246647D02*
X102748819Y-79008552D01*
X102510723Y-78913314D01*
X102463104Y-78865695D01*
X102415485Y-78770457D01*
X102748819Y-80389504D02*
X103748819Y-80389504D01*
X102748819Y-80960933D01*
X103748819Y-80960933D01*
X102748819Y-81865695D02*
X103272628Y-81865695D01*
X103367866Y-81818076D01*
X103415485Y-81722838D01*
X103415485Y-81532361D01*
X103367866Y-81437123D01*
X102796438Y-81865695D02*
X102748819Y-81770457D01*
X102748819Y-81532361D01*
X102796438Y-81437123D01*
X102891676Y-81389504D01*
X102986914Y-81389504D01*
X103082152Y-81437123D01*
X103129771Y-81532361D01*
X103129771Y-81770457D01*
X103177390Y-81865695D01*
X103415485Y-82199028D02*
X103415485Y-82579980D01*
X103748819Y-82341885D02*
X102891676Y-82341885D01*
X102796438Y-82389504D01*
X102748819Y-82484742D01*
X102748819Y-82579980D01*
X102748819Y-82913314D02*
X103748819Y-82913314D01*
X102748819Y-83341885D02*
X103272628Y-83341885D01*
X103367866Y-83294266D01*
X103415485Y-83199028D01*
X103415485Y-83056171D01*
X103367866Y-82960933D01*
X103320247Y-82913314D01*
X102748819Y-84246647D02*
X103272628Y-84246647D01*
X103367866Y-84199028D01*
X103415485Y-84103790D01*
X103415485Y-83913314D01*
X103367866Y-83818076D01*
X102796438Y-84246647D02*
X102748819Y-84151409D01*
X102748819Y-83913314D01*
X102796438Y-83818076D01*
X102891676Y-83770457D01*
X102986914Y-83770457D01*
X103082152Y-83818076D01*
X103129771Y-83913314D01*
X103129771Y-84151409D01*
X103177390Y-84246647D01*
X103415485Y-84722838D02*
X102748819Y-84722838D01*
X103320247Y-84722838D02*
X103367866Y-84770457D01*
X103415485Y-84865695D01*
X103415485Y-85008552D01*
X103367866Y-85103790D01*
X103272628Y-85151409D01*
X102748819Y-85151409D01*
X102748819Y-85627600D02*
X103415485Y-85627600D01*
X103748819Y-85627600D02*
X103701200Y-85579980D01*
X103653580Y-85627600D01*
X103701200Y-85675219D01*
X103748819Y-85627600D01*
X103653580Y-85627600D01*
X102796438Y-86484742D02*
X102748819Y-86389504D01*
X102748819Y-86199028D01*
X102796438Y-86103790D01*
X102891676Y-86056171D01*
X103272628Y-86056171D01*
X103367866Y-86103790D01*
X103415485Y-86199028D01*
X103415485Y-86389504D01*
X103367866Y-86484742D01*
X103272628Y-86532361D01*
X103177390Y-86532361D01*
X103082152Y-86056171D01*
X102748819Y-87103790D02*
X102796438Y-87008552D01*
X102891676Y-86960933D01*
X103748819Y-86960933D01*
X102748819Y-88722838D02*
X102748819Y-88246647D01*
X103748819Y-88246647D01*
X102796438Y-89437123D02*
X102748819Y-89341885D01*
X102748819Y-89151409D01*
X102796438Y-89056171D01*
X102891676Y-89008552D01*
X103272628Y-89008552D01*
X103367866Y-89056171D01*
X103415485Y-89151409D01*
X103415485Y-89341885D01*
X103367866Y-89437123D01*
X103272628Y-89484742D01*
X103177390Y-89484742D01*
X103082152Y-89008552D01*
X103415485Y-89818076D02*
X102748819Y-90008552D01*
X103225009Y-90199028D01*
X102748819Y-90389504D01*
X103415485Y-90579980D01*
X102748819Y-90960933D02*
X103415485Y-90960933D01*
X103748819Y-90960933D02*
X103701200Y-90913314D01*
X103653580Y-90960933D01*
X103701200Y-91008552D01*
X103748819Y-90960933D01*
X103653580Y-90960933D01*
X102796438Y-91389504D02*
X102748819Y-91484742D01*
X102748819Y-91675219D01*
X102796438Y-91770457D01*
X102891676Y-91818076D01*
X102939295Y-91818076D01*
X103034533Y-91770457D01*
X103082152Y-91675219D01*
X103082152Y-91532361D01*
X103129771Y-91437123D01*
X103225009Y-91389504D01*
X103272628Y-91389504D01*
X103367866Y-91437123D01*
X103415485Y-91532361D01*
X103415485Y-91675219D01*
X103367866Y-91770457D01*
X177911523Y-80614780D02*
X177911523Y-79614780D01*
X178482952Y-80614780D02*
X178054380Y-80043352D01*
X178482952Y-79614780D02*
X177911523Y-80186209D01*
X179292476Y-80567161D02*
X179197238Y-80614780D01*
X179006761Y-80614780D01*
X178911523Y-80567161D01*
X178863904Y-80471923D01*
X178863904Y-80090971D01*
X178911523Y-79995733D01*
X179006761Y-79948114D01*
X179197238Y-79948114D01*
X179292476Y-79995733D01*
X179340095Y-80090971D01*
X179340095Y-80186209D01*
X178863904Y-80281447D01*
X179673428Y-79948114D02*
X179911523Y-80614780D01*
X180149619Y-79948114D02*
X179911523Y-80614780D01*
X179816285Y-80852876D01*
X179768666Y-80900495D01*
X179673428Y-80948114D01*
X180530571Y-80614780D02*
X180530571Y-79614780D01*
X180530571Y-79995733D02*
X180625809Y-79948114D01*
X180816285Y-79948114D01*
X180911523Y-79995733D01*
X180959142Y-80043352D01*
X181006761Y-80138590D01*
X181006761Y-80424304D01*
X180959142Y-80519542D01*
X180911523Y-80567161D01*
X180816285Y-80614780D01*
X180625809Y-80614780D01*
X180530571Y-80567161D01*
X181578190Y-80614780D02*
X181482952Y-80567161D01*
X181435333Y-80519542D01*
X181387714Y-80424304D01*
X181387714Y-80138590D01*
X181435333Y-80043352D01*
X181482952Y-79995733D01*
X181578190Y-79948114D01*
X181721047Y-79948114D01*
X181816285Y-79995733D01*
X181863904Y-80043352D01*
X181911523Y-80138590D01*
X181911523Y-80424304D01*
X181863904Y-80519542D01*
X181816285Y-80567161D01*
X181721047Y-80614780D01*
X181578190Y-80614780D01*
X182768666Y-80614780D02*
X182768666Y-80090971D01*
X182721047Y-79995733D01*
X182625809Y-79948114D01*
X182435333Y-79948114D01*
X182340095Y-79995733D01*
X182768666Y-80567161D02*
X182673428Y-80614780D01*
X182435333Y-80614780D01*
X182340095Y-80567161D01*
X182292476Y-80471923D01*
X182292476Y-80376685D01*
X182340095Y-80281447D01*
X182435333Y-80233828D01*
X182673428Y-80233828D01*
X182768666Y-80186209D01*
X183244857Y-80614780D02*
X183244857Y-79948114D01*
X183244857Y-80138590D02*
X183292476Y-80043352D01*
X183340095Y-79995733D01*
X183435333Y-79948114D01*
X183530571Y-79948114D01*
X184292476Y-80614780D02*
X184292476Y-79614780D01*
X184292476Y-80567161D02*
X184197238Y-80614780D01*
X184006761Y-80614780D01*
X183911523Y-80567161D01*
X183863904Y-80519542D01*
X183816285Y-80424304D01*
X183816285Y-80138590D01*
X183863904Y-80043352D01*
X183911523Y-79995733D01*
X184006761Y-79948114D01*
X184197238Y-79948114D01*
X184292476Y-79995733D01*
X157084971Y-80563980D02*
X157084971Y-79563980D01*
X157418304Y-80278266D01*
X157751638Y-79563980D01*
X157751638Y-80563980D01*
X158370685Y-80563980D02*
X158275447Y-80516361D01*
X158227828Y-80468742D01*
X158180209Y-80373504D01*
X158180209Y-80087790D01*
X158227828Y-79992552D01*
X158275447Y-79944933D01*
X158370685Y-79897314D01*
X158513542Y-79897314D01*
X158608780Y-79944933D01*
X158656400Y-79992552D01*
X158704019Y-80087790D01*
X158704019Y-80373504D01*
X158656400Y-80468742D01*
X158608780Y-80516361D01*
X158513542Y-80563980D01*
X158370685Y-80563980D01*
X159561161Y-79897314D02*
X159561161Y-80563980D01*
X159132590Y-79897314D02*
X159132590Y-80421123D01*
X159180209Y-80516361D01*
X159275447Y-80563980D01*
X159418304Y-80563980D01*
X159513542Y-80516361D01*
X159561161Y-80468742D01*
X159989733Y-80516361D02*
X160084971Y-80563980D01*
X160275447Y-80563980D01*
X160370685Y-80516361D01*
X160418304Y-80421123D01*
X160418304Y-80373504D01*
X160370685Y-80278266D01*
X160275447Y-80230647D01*
X160132590Y-80230647D01*
X160037352Y-80183028D01*
X159989733Y-80087790D01*
X159989733Y-80040171D01*
X160037352Y-79944933D01*
X160132590Y-79897314D01*
X160275447Y-79897314D01*
X160370685Y-79944933D01*
X161227828Y-80516361D02*
X161132590Y-80563980D01*
X160942114Y-80563980D01*
X160846876Y-80516361D01*
X160799257Y-80421123D01*
X160799257Y-80040171D01*
X160846876Y-79944933D01*
X160942114Y-79897314D01*
X161132590Y-79897314D01*
X161227828Y-79944933D01*
X161275447Y-80040171D01*
X161275447Y-80135409D01*
X160799257Y-80230647D01*
D11*
X175196500Y-82362500D02*
X175196500Y-79562500D01*
X162326500Y-82362500D02*
X177906500Y-82362500D01*
X162326500Y-79562500D02*
X162326500Y-82362500D01*
X177906500Y-79562500D02*
X162326500Y-79562500D01*
X177906500Y-82362500D02*
X177906500Y-79562500D01*
X167041500Y-83783500D02*
X167041500Y-89023500D01*
X164301500Y-83783500D02*
X164301500Y-89023500D01*
X167041500Y-83783500D02*
X164301500Y-83783500D01*
X167041500Y-89023500D02*
X164301500Y-89023500D01*
X130900500Y-112549000D02*
X136140500Y-112549000D01*
X130900500Y-115289000D02*
X136140500Y-115289000D01*
X130900500Y-112549000D02*
X130900500Y-115289000D01*
X136140500Y-112549000D02*
X136140500Y-115289000D01*
X130021000Y-119343500D02*
X130021000Y-124583500D01*
X127281000Y-119343500D02*
X127281000Y-124583500D01*
X130021000Y-119343500D02*
X127281000Y-119343500D01*
X130021000Y-124583500D02*
X127281000Y-124583500D01*
X130021000Y-92673500D02*
X130021000Y-97913500D01*
X127281000Y-92673500D02*
X127281000Y-97913500D01*
X130021000Y-92673500D02*
X127281000Y-92673500D01*
X130021000Y-97913500D02*
X127281000Y-97913500D01*
X153254400Y-78979700D02*
X153254400Y-76239700D01*
X158494400Y-78979700D02*
X158494400Y-76239700D01*
X158494400Y-76239700D02*
X153254400Y-76239700D01*
X158494400Y-78979700D02*
X153254400Y-78979700D01*
X119701000Y-68854500D02*
X124901000Y-68854500D01*
X124901000Y-68854500D02*
X124901000Y-66194500D01*
X124901000Y-66194500D02*
X119701000Y-66194500D01*
X119701000Y-66194500D02*
X119701000Y-68854500D01*
X120651000Y-66194500D02*
X120651000Y-60194500D01*
X120651000Y-60194500D02*
X121411000Y-60194500D01*
X121411000Y-60194500D02*
X121411000Y-66194500D01*
X120711000Y-66194500D02*
X120711000Y-60194500D01*
X120831000Y-66194500D02*
X120831000Y-60194500D01*
X120951000Y-66194500D02*
X120951000Y-60194500D01*
X121071000Y-66194500D02*
X121071000Y-60194500D01*
X121191000Y-66194500D02*
X121191000Y-60194500D01*
X121311000Y-66194500D02*
X121311000Y-60194500D01*
X120651000Y-69184500D02*
X120651000Y-68854500D01*
X121411000Y-69184500D02*
X121411000Y-68854500D01*
X122301000Y-68854500D02*
X122301000Y-66194500D01*
X123191000Y-66194500D02*
X123191000Y-60194500D01*
X123191000Y-60194500D02*
X123951000Y-60194500D01*
X123951000Y-60194500D02*
X123951000Y-66194500D01*
X123191000Y-69251571D02*
X123191000Y-68854500D01*
X123951000Y-69251571D02*
X123951000Y-68854500D01*
X121031000Y-71564500D02*
X119761000Y-71564500D01*
X119761000Y-71564500D02*
X119761000Y-70294500D01*
X185446240Y-75873920D02*
X183646240Y-75873920D01*
X173736240Y-60693920D02*
X174386240Y-60693920D01*
X188356240Y-60693920D02*
X188356240Y-60173920D01*
X174386240Y-68803920D02*
X174386240Y-60693920D01*
X188356240Y-60173920D02*
X173736240Y-60173920D01*
X173736240Y-60173920D02*
X173736240Y-60693920D01*
X174386240Y-75653920D02*
X174386240Y-72323920D01*
X187706240Y-75653920D02*
X187706240Y-72323920D01*
X187706240Y-75653920D02*
X174386240Y-75653920D01*
X187706240Y-60693920D02*
X188356240Y-60693920D01*
X187706240Y-60693920D02*
X187706240Y-68803920D01*
X102810000Y-123313500D02*
X108010000Y-123313500D01*
X102810000Y-110553500D02*
X102810000Y-123313500D01*
X108010000Y-107953500D02*
X108010000Y-123313500D01*
X102810000Y-110553500D02*
X105410000Y-110553500D01*
X105410000Y-110553500D02*
X105410000Y-107953500D01*
X105410000Y-107953500D02*
X108010000Y-107953500D01*
X102810000Y-109283500D02*
X102810000Y-107953500D01*
X102810000Y-107953500D02*
X104140000Y-107953500D01*
X126841560Y-119310800D02*
X116561560Y-119310800D01*
X126841560Y-144950800D02*
X126841560Y-119310800D01*
X116561560Y-144950800D02*
X126841560Y-144950800D01*
X116561560Y-119310800D02*
X116561560Y-144950800D01*
X124351560Y-119370800D02*
X122701560Y-119370800D01*
X124351560Y-144890800D02*
X124351560Y-119370800D01*
X119051560Y-144890800D02*
X124351560Y-144890800D01*
X119051560Y-119370800D02*
X119051560Y-144890800D01*
X120701560Y-119370800D02*
X119051560Y-119370800D01*
X122701560Y-119370800D02*
G75*
G02*
X120701560Y-119370800I-1000000J0D01*
G01*
X126846640Y-92671280D02*
X116566640Y-92671280D01*
X126846640Y-118311280D02*
X126846640Y-92671280D01*
X116566640Y-118311280D02*
X126846640Y-118311280D01*
X116566640Y-92671280D02*
X116566640Y-118311280D01*
X124356640Y-92731280D02*
X122706640Y-92731280D01*
X124356640Y-118251280D02*
X124356640Y-92731280D01*
X119056640Y-118251280D02*
X124356640Y-118251280D01*
X119056640Y-92731280D02*
X119056640Y-118251280D01*
X120706640Y-92731280D02*
X119056640Y-92731280D01*
X122706640Y-92731280D02*
G75*
G02*
X120706640Y-92731280I-1000000J0D01*
G01*
X161844500Y-83823500D02*
X160194500Y-83823500D01*
X161844500Y-101723500D02*
X161844500Y-83823500D01*
X156544500Y-101723500D02*
X161844500Y-101723500D01*
X156544500Y-83823500D02*
X156544500Y-101723500D01*
X158194500Y-83823500D02*
X156544500Y-83823500D01*
X160194500Y-83823500D02*
G75*
G02*
X158194500Y-83823500I-1000000J0D01*
G01*
X181681960Y-79015260D02*
X181681960Y-76275260D01*
X186921960Y-79015260D02*
X186921960Y-76275260D01*
X186921960Y-76275260D02*
X181681960Y-76275260D01*
X186921960Y-79015260D02*
X181681960Y-79015260D01*
X175180440Y-79015260D02*
X175180440Y-76275260D01*
X180420440Y-79015260D02*
X180420440Y-76275260D01*
X180420440Y-76275260D02*
X175180440Y-76275260D01*
X180420440Y-79015260D02*
X175180440Y-79015260D01*
X159777760Y-78979700D02*
X159777760Y-76239700D01*
X165017760Y-78979700D02*
X165017760Y-76239700D01*
X165017760Y-76239700D02*
X159777760Y-76239700D01*
X165017760Y-78979700D02*
X159777760Y-78979700D01*
X163520960Y-75863760D02*
X161720960Y-75863760D01*
X151810960Y-60683760D02*
X152460960Y-60683760D01*
X166430960Y-60683760D02*
X166430960Y-60163760D01*
X152460960Y-68793760D02*
X152460960Y-60683760D01*
X166430960Y-60163760D02*
X151810960Y-60163760D01*
X151810960Y-60163760D02*
X151810960Y-60683760D01*
X152460960Y-75643760D02*
X152460960Y-72313760D01*
X165780960Y-75643760D02*
X165780960Y-72313760D01*
X165780960Y-75643760D02*
X152460960Y-75643760D01*
X165780960Y-60683760D02*
X166430960Y-60683760D01*
X165780960Y-60683760D02*
X165780960Y-68793760D01*
X140890500Y-111883500D02*
X146350500Y-111883500D01*
X146350500Y-111883500D02*
X146350500Y-60963500D01*
X146350500Y-60963500D02*
X133430500Y-60963500D01*
X133430500Y-60963500D02*
X133430500Y-111883500D01*
X133430500Y-111883500D02*
X138890500Y-111883500D01*
X148840500Y-111943500D02*
X148840500Y-60903500D01*
X148840500Y-60903500D02*
X130940500Y-60903500D01*
X130940500Y-60903500D02*
X130940500Y-111943500D01*
X130940500Y-111943500D02*
X148840500Y-111943500D01*
X138890500Y-111883500D02*
G75*
G02*
X140890500Y-111883500I1000000J0D01*
G01*
D10*
X114895000Y-142633500D02*
X109895000Y-142633500D01*
X109895000Y-142633500D02*
X109895000Y-60693500D01*
X114895000Y-142633500D02*
X114895000Y-60693500D01*
X114895000Y-60693500D02*
X109895000Y-60693500D01*
X168156023Y-83814880D02*
X167822690Y-83338690D01*
X167584595Y-83814880D02*
X167584595Y-82814880D01*
X167965547Y-82814880D01*
X168060785Y-82862500D01*
X168108404Y-82910119D01*
X168156023Y-83005357D01*
X168156023Y-83148214D01*
X168108404Y-83243452D01*
X168060785Y-83291071D01*
X167965547Y-83338690D01*
X167584595Y-83338690D01*
X168584595Y-83814880D02*
X168584595Y-82814880D01*
X169156023Y-83814880D01*
X169156023Y-82814880D01*
X170156023Y-83814880D02*
X169584595Y-83814880D01*
X169870309Y-83814880D02*
X169870309Y-82814880D01*
X169775071Y-82957738D01*
X169679833Y-83052976D01*
X169584595Y-83100595D01*
X168378142Y-86653666D02*
X168425761Y-86701285D01*
X168473380Y-86844142D01*
X168473380Y-86939380D01*
X168425761Y-87082238D01*
X168330523Y-87177476D01*
X168235285Y-87225095D01*
X168044809Y-87272714D01*
X167901952Y-87272714D01*
X167711476Y-87225095D01*
X167616238Y-87177476D01*
X167521000Y-87082238D01*
X167473380Y-86939380D01*
X167473380Y-86844142D01*
X167521000Y-86701285D01*
X167568619Y-86653666D01*
X167901952Y-86082238D02*
X167854333Y-86177476D01*
X167806714Y-86225095D01*
X167711476Y-86272714D01*
X167663857Y-86272714D01*
X167568619Y-86225095D01*
X167521000Y-86177476D01*
X167473380Y-86082238D01*
X167473380Y-85891761D01*
X167521000Y-85796523D01*
X167568619Y-85748904D01*
X167663857Y-85701285D01*
X167711476Y-85701285D01*
X167806714Y-85748904D01*
X167854333Y-85796523D01*
X167901952Y-85891761D01*
X167901952Y-86082238D01*
X167949571Y-86177476D01*
X167997190Y-86225095D01*
X168092428Y-86272714D01*
X168282904Y-86272714D01*
X168378142Y-86225095D01*
X168425761Y-86177476D01*
X168473380Y-86082238D01*
X168473380Y-85891761D01*
X168425761Y-85796523D01*
X168378142Y-85748904D01*
X168282904Y-85701285D01*
X168092428Y-85701285D01*
X167997190Y-85748904D01*
X167949571Y-85796523D01*
X167901952Y-85891761D01*
X133246833Y-116816142D02*
X133199214Y-116863761D01*
X133056357Y-116911380D01*
X132961119Y-116911380D01*
X132818261Y-116863761D01*
X132723023Y-116768523D01*
X132675404Y-116673285D01*
X132627785Y-116482809D01*
X132627785Y-116339952D01*
X132675404Y-116149476D01*
X132723023Y-116054238D01*
X132818261Y-115959000D01*
X132961119Y-115911380D01*
X133056357Y-115911380D01*
X133199214Y-115959000D01*
X133246833Y-116006619D01*
X133580166Y-115911380D02*
X134246833Y-115911380D01*
X133818261Y-116911380D01*
X131230642Y-122150166D02*
X131278261Y-122197785D01*
X131325880Y-122340642D01*
X131325880Y-122435880D01*
X131278261Y-122578738D01*
X131183023Y-122673976D01*
X131087785Y-122721595D01*
X130897309Y-122769214D01*
X130754452Y-122769214D01*
X130563976Y-122721595D01*
X130468738Y-122673976D01*
X130373500Y-122578738D01*
X130325880Y-122435880D01*
X130325880Y-122340642D01*
X130373500Y-122197785D01*
X130421119Y-122150166D01*
X130325880Y-121293023D02*
X130325880Y-121483500D01*
X130373500Y-121578738D01*
X130421119Y-121626357D01*
X130563976Y-121721595D01*
X130754452Y-121769214D01*
X131135404Y-121769214D01*
X131230642Y-121721595D01*
X131278261Y-121673976D01*
X131325880Y-121578738D01*
X131325880Y-121388261D01*
X131278261Y-121293023D01*
X131230642Y-121245404D01*
X131135404Y-121197785D01*
X130897309Y-121197785D01*
X130802071Y-121245404D01*
X130754452Y-121293023D01*
X130706833Y-121388261D01*
X130706833Y-121578738D01*
X130754452Y-121673976D01*
X130802071Y-121721595D01*
X130897309Y-121769214D01*
X128408133Y-92254342D02*
X128360514Y-92301961D01*
X128217657Y-92349580D01*
X128122419Y-92349580D01*
X127979561Y-92301961D01*
X127884323Y-92206723D01*
X127836704Y-92111485D01*
X127789085Y-91921009D01*
X127789085Y-91778152D01*
X127836704Y-91587676D01*
X127884323Y-91492438D01*
X127979561Y-91397200D01*
X128122419Y-91349580D01*
X128217657Y-91349580D01*
X128360514Y-91397200D01*
X128408133Y-91444819D01*
X129312895Y-91349580D02*
X128836704Y-91349580D01*
X128789085Y-91825771D01*
X128836704Y-91778152D01*
X128931942Y-91730533D01*
X129170038Y-91730533D01*
X129265276Y-91778152D01*
X129312895Y-91825771D01*
X129360514Y-91921009D01*
X129360514Y-92159104D01*
X129312895Y-92254342D01*
X129265276Y-92301961D01*
X129170038Y-92349580D01*
X128931942Y-92349580D01*
X128836704Y-92301961D01*
X128789085Y-92254342D01*
X151963333Y-77969382D02*
X151915714Y-78017001D01*
X151772857Y-78064620D01*
X151677619Y-78064620D01*
X151534761Y-78017001D01*
X151439523Y-77921763D01*
X151391904Y-77826525D01*
X151344285Y-77636049D01*
X151344285Y-77493192D01*
X151391904Y-77302716D01*
X151439523Y-77207478D01*
X151534761Y-77112240D01*
X151677619Y-77064620D01*
X151772857Y-77064620D01*
X151915714Y-77112240D01*
X151963333Y-77159859D01*
X152915714Y-78064620D02*
X152344285Y-78064620D01*
X152630000Y-78064620D02*
X152630000Y-77064620D01*
X152534761Y-77207478D01*
X152439523Y-77302716D01*
X152344285Y-77350335D01*
X118213380Y-66242833D02*
X118927666Y-66242833D01*
X119070523Y-66290452D01*
X119165761Y-66385690D01*
X119213380Y-66528547D01*
X119213380Y-66623785D01*
X118213380Y-65338071D02*
X118213380Y-65528547D01*
X118261000Y-65623785D01*
X118308619Y-65671404D01*
X118451476Y-65766642D01*
X118641952Y-65814261D01*
X119022904Y-65814261D01*
X119118142Y-65766642D01*
X119165761Y-65719023D01*
X119213380Y-65623785D01*
X119213380Y-65433309D01*
X119165761Y-65338071D01*
X119118142Y-65290452D01*
X119022904Y-65242833D01*
X118784809Y-65242833D01*
X118689571Y-65290452D01*
X118641952Y-65338071D01*
X118594333Y-65433309D01*
X118594333Y-65623785D01*
X118641952Y-65719023D01*
X118689571Y-65766642D01*
X118784809Y-65814261D01*
X180705166Y-68984880D02*
X180705166Y-69699166D01*
X180657547Y-69842023D01*
X180562309Y-69937261D01*
X180419452Y-69984880D01*
X180324214Y-69984880D01*
X181086119Y-68984880D02*
X181705166Y-68984880D01*
X181371833Y-69365833D01*
X181514690Y-69365833D01*
X181609928Y-69413452D01*
X181657547Y-69461071D01*
X181705166Y-69556309D01*
X181705166Y-69794404D01*
X181657547Y-69889642D01*
X181609928Y-69937261D01*
X181514690Y-69984880D01*
X181228976Y-69984880D01*
X181133738Y-69937261D01*
X181086119Y-69889642D01*
X105076666Y-106405880D02*
X105076666Y-107120166D01*
X105029047Y-107263023D01*
X104933809Y-107358261D01*
X104790952Y-107405880D01*
X104695714Y-107405880D01*
X106029047Y-106405880D02*
X105552857Y-106405880D01*
X105505238Y-106882071D01*
X105552857Y-106834452D01*
X105648095Y-106786833D01*
X105886190Y-106786833D01*
X105981428Y-106834452D01*
X106029047Y-106882071D01*
X106076666Y-106977309D01*
X106076666Y-107215404D01*
X106029047Y-107310642D01*
X105981428Y-107358261D01*
X105886190Y-107405880D01*
X105648095Y-107405880D01*
X105552857Y-107358261D01*
X105505238Y-107310642D01*
X120934575Y-131578100D02*
X120934575Y-132387624D01*
X120982194Y-132482862D01*
X121029813Y-132530481D01*
X121125051Y-132578100D01*
X121315527Y-132578100D01*
X121410765Y-132530481D01*
X121458384Y-132482862D01*
X121506003Y-132387624D01*
X121506003Y-131578100D01*
X122410765Y-131911434D02*
X122410765Y-132578100D01*
X122172670Y-131530481D02*
X121934575Y-132244767D01*
X122553622Y-132244767D01*
X120944735Y-104942380D02*
X120944735Y-105751904D01*
X120992354Y-105847142D01*
X121039973Y-105894761D01*
X121135211Y-105942380D01*
X121325687Y-105942380D01*
X121420925Y-105894761D01*
X121468544Y-105847142D01*
X121516163Y-105751904D01*
X121516163Y-104942380D01*
X121897116Y-104942380D02*
X122516163Y-104942380D01*
X122182830Y-105323333D01*
X122325687Y-105323333D01*
X122420925Y-105370952D01*
X122468544Y-105418571D01*
X122516163Y-105513809D01*
X122516163Y-105751904D01*
X122468544Y-105847142D01*
X122420925Y-105894761D01*
X122325687Y-105942380D01*
X122039973Y-105942380D01*
X121944735Y-105894761D01*
X121897116Y-105847142D01*
X158432595Y-82275880D02*
X158432595Y-83085404D01*
X158480214Y-83180642D01*
X158527833Y-83228261D01*
X158623071Y-83275880D01*
X158813547Y-83275880D01*
X158908785Y-83228261D01*
X158956404Y-83180642D01*
X159004023Y-83085404D01*
X159004023Y-82275880D01*
X159432595Y-82371119D02*
X159480214Y-82323500D01*
X159575452Y-82275880D01*
X159813547Y-82275880D01*
X159908785Y-82323500D01*
X159956404Y-82371119D01*
X160004023Y-82466357D01*
X160004023Y-82561595D01*
X159956404Y-82704452D01*
X159384976Y-83275880D01*
X160004023Y-83275880D01*
X187905093Y-77992242D02*
X187857474Y-78039861D01*
X187714617Y-78087480D01*
X187619379Y-78087480D01*
X187476521Y-78039861D01*
X187381283Y-77944623D01*
X187333664Y-77849385D01*
X187286045Y-77658909D01*
X187286045Y-77516052D01*
X187333664Y-77325576D01*
X187381283Y-77230338D01*
X187476521Y-77135100D01*
X187619379Y-77087480D01*
X187714617Y-77087480D01*
X187857474Y-77135100D01*
X187905093Y-77182719D01*
X188762236Y-77420814D02*
X188762236Y-78087480D01*
X188524140Y-77039861D02*
X188286045Y-77754147D01*
X188905093Y-77754147D01*
X173935093Y-77987162D02*
X173887474Y-78034781D01*
X173744617Y-78082400D01*
X173649379Y-78082400D01*
X173506521Y-78034781D01*
X173411283Y-77939543D01*
X173363664Y-77844305D01*
X173316045Y-77653829D01*
X173316045Y-77510972D01*
X173363664Y-77320496D01*
X173411283Y-77225258D01*
X173506521Y-77130020D01*
X173649379Y-77082400D01*
X173744617Y-77082400D01*
X173887474Y-77130020D01*
X173935093Y-77177639D01*
X174268426Y-77082400D02*
X174887474Y-77082400D01*
X174554140Y-77463353D01*
X174696998Y-77463353D01*
X174792236Y-77510972D01*
X174839855Y-77558591D01*
X174887474Y-77653829D01*
X174887474Y-77891924D01*
X174839855Y-77987162D01*
X174792236Y-78034781D01*
X174696998Y-78082400D01*
X174411283Y-78082400D01*
X174316045Y-78034781D01*
X174268426Y-77987162D01*
X165960893Y-77954142D02*
X165913274Y-78001761D01*
X165770417Y-78049380D01*
X165675179Y-78049380D01*
X165532321Y-78001761D01*
X165437083Y-77906523D01*
X165389464Y-77811285D01*
X165341845Y-77620809D01*
X165341845Y-77477952D01*
X165389464Y-77287476D01*
X165437083Y-77192238D01*
X165532321Y-77097000D01*
X165675179Y-77049380D01*
X165770417Y-77049380D01*
X165913274Y-77097000D01*
X165960893Y-77144619D01*
X166341845Y-77144619D02*
X166389464Y-77097000D01*
X166484702Y-77049380D01*
X166722798Y-77049380D01*
X166818036Y-77097000D01*
X166865655Y-77144619D01*
X166913274Y-77239857D01*
X166913274Y-77335095D01*
X166865655Y-77477952D01*
X166294226Y-78049380D01*
X166913274Y-78049380D01*
X158797666Y-68984880D02*
X158797666Y-69699166D01*
X158750047Y-69842023D01*
X158654809Y-69937261D01*
X158511952Y-69984880D01*
X158416714Y-69984880D01*
X159226238Y-69080119D02*
X159273857Y-69032500D01*
X159369095Y-68984880D01*
X159607190Y-68984880D01*
X159702428Y-69032500D01*
X159750047Y-69080119D01*
X159797666Y-69175357D01*
X159797666Y-69270595D01*
X159750047Y-69413452D01*
X159178619Y-69984880D01*
X159797666Y-69984880D01*
X139128595Y-112335880D02*
X139128595Y-113145404D01*
X139176214Y-113240642D01*
X139223833Y-113288261D01*
X139319071Y-113335880D01*
X139509547Y-113335880D01*
X139604785Y-113288261D01*
X139652404Y-113240642D01*
X139700023Y-113145404D01*
X139700023Y-112335880D01*
X140700023Y-113335880D02*
X140128595Y-113335880D01*
X140414309Y-113335880D02*
X140414309Y-112335880D01*
X140319071Y-112478738D01*
X140223833Y-112573976D01*
X140128595Y-112621595D01*
X191008095Y-134745880D02*
X191008095Y-133745880D01*
X191008095Y-134222071D02*
X191579523Y-134222071D01*
X191579523Y-134745880D02*
X191579523Y-133745880D01*
X192484285Y-134079214D02*
X192484285Y-134745880D01*
X192246190Y-133698261D02*
X192008095Y-134412547D01*
X192627142Y-134412547D01*
X191008095Y-69540380D02*
X191008095Y-68540380D01*
X191008095Y-69016571D02*
X191579523Y-69016571D01*
X191579523Y-69540380D02*
X191579523Y-68540380D01*
X191960476Y-68540380D02*
X192579523Y-68540380D01*
X192246190Y-68921333D01*
X192389047Y-68921333D01*
X192484285Y-68968952D01*
X192531904Y-69016571D01*
X192579523Y-69111809D01*
X192579523Y-69349904D01*
X192531904Y-69445142D01*
X192484285Y-69492761D01*
X192389047Y-69540380D01*
X192103333Y-69540380D01*
X192008095Y-69492761D01*
X191960476Y-69445142D01*
X105283095Y-137285880D02*
X105283095Y-136285880D01*
X105283095Y-136762071D02*
X105854523Y-136762071D01*
X105854523Y-137285880D02*
X105854523Y-136285880D01*
X106283095Y-136381119D02*
X106330714Y-136333500D01*
X106425952Y-136285880D01*
X106664047Y-136285880D01*
X106759285Y-136333500D01*
X106806904Y-136381119D01*
X106854523Y-136476357D01*
X106854523Y-136571595D01*
X106806904Y-136714452D01*
X106235476Y-137285880D01*
X106854523Y-137285880D01*
X105283095Y-65666880D02*
X105283095Y-64666880D01*
X105283095Y-65143071D02*
X105854523Y-65143071D01*
X105854523Y-65666880D02*
X105854523Y-64666880D01*
X106854523Y-65666880D02*
X106283095Y-65666880D01*
X106568809Y-65666880D02*
X106568809Y-64666880D01*
X106473571Y-64809738D01*
X106378333Y-64904976D01*
X106283095Y-64952595D01*
X112061666Y-142962380D02*
X112061666Y-143676666D01*
X112014047Y-143819523D01*
X111918809Y-143914761D01*
X111775952Y-143962380D01*
X111680714Y-143962380D01*
X113061666Y-143962380D02*
X112490238Y-143962380D01*
X112775952Y-143962380D02*
X112775952Y-142962380D01*
X112680714Y-143105238D01*
X112585476Y-143200476D01*
X112490238Y-143248095D01*
M02*
